<?xml version="1.0" encoding="utf-8"?>
<!-- Generator: Adobe Illustrator 25.0.0, SVG Export Plug-In . SVG Version: 6.00 Build 0)  -->
<svg version="1.1" xmlns="http://www.w3.org/2000/svg" xmlns:xlink="http://www.w3.org/1999/xlink" x="0px" y="0px"
	 viewBox="0 0 113.4 113.4" style="enable-background:new 0 0 113.4 113.4;" xml:space="preserve">
<style type="text/css">
	.st0{fill:#456C6B;}
	.st1{display:none;}
</style>
<g id="Capa_1">
	<g>
		<g>
			<path class="st0" d="M96.7,17.3c-9.1-9.3-21.9-14-38.4-14c-17.3,0-30.8,5-40.5,14.9C8,28.3,3.1,41.8,3.1,58.8
				c0,16.4,4.5,29.4,13.6,39c5.5,5.8,12.4,9.9,20.6,12.2c5.6-6.5,12-39.7,10-43.8C45.7,63,36.4,52.5,36.4,52.5l14.2,6.1l-4-18.6
				c0,0,8.6,13.8,9.9,15.5h0c1.3-1.7,9.9-15.5,9.9-15.5l-4,18.6l14.2-6.1c0,0-9.3,10.5-10.9,13.7c-2,4,4,35.5,9.5,43.2
				c8.1-2.5,14.9-6.8,20.5-12.7c9.7-10.4,14.5-24.1,14.5-41.2C110.3,39.4,105.7,26.7,96.7,17.3z M105.8,58.6c0,0-3.4,2.2-7.2,1.7
				c-3.8-0.5-6.6-3.5-6.6-3.5s3.4-2.2,7.2-1.7C103,55.6,105.8,58.6,105.8,58.6z M87.5,53.9c-5.3,0-9.6-3.6-9.6-3.6s4.3-3.6,9.6-3.6
				c5.3,0,9.6,3.6,9.6,3.6S92.8,53.9,87.5,53.9z M100.5,37.3c0,0-2.1,3.5-5.8,4.7c-3.6,1.2-7.4-0.3-7.4-0.3s2.1-3.5,5.8-4.7
				C96.7,35.8,100.5,37.3,100.5,37.3z M87.7,27c3-2.4,7-2.4,7-2.4S94,28.6,91,31c-3,2.4-7,2.4-7,2.4S84.7,29.4,87.7,27z M74.4,16.1
				c2.2-3.2,6.1-4.2,6.1-4.2s0.4,4-1.8,7.2c-2.2,3.2-6.1,4.2-6.1,4.2S72.2,19.3,74.4,16.1z M32.5,11.8c0,0,3.9,1.1,6.1,4.2
				c2.2,3.2,1.8,7.2,1.8,7.2s-3.9-1.1-6.1-4.2C32.1,15.9,32.5,11.8,32.5,11.8z M25.3,27c3,2.4,3.7,6.4,3.7,6.4S25,33.4,22,31
				s-3.7-6.4-3.7-6.4S22.3,24.5,25.3,27z M19.9,37.1c3.6,1.2,5.8,4.7,5.8,4.7s-3.8,1.5-7.4,0.3c-3.6-1.2-5.8-4.7-5.8-4.7
				S16.3,35.8,19.9,37.1z M35,49.2c0,0-4.3,3.6-9.6,3.6s-9.6-3.6-9.6-3.6s4.3-3.6,9.6-3.6S35,49.2,35,49.2z M13.7,55.2
				c3.8-0.5,7.2,1.7,7.2,1.7s-2.8,3-6.6,3.5c-3.8,0.5-7.2-1.7-7.2-1.7S9.9,55.6,13.7,55.2z M20,70.9c-3.3,2-7.3,1.4-7.3,1.4
				s1.3-3.9,4.6-5.9c3.3-2,7.3-1.4,7.3-1.4S23.2,68.9,20,70.9z M43.5,63.6c0,0-1.8,5.3-6.3,8.1c-4.5,2.8-10,1.9-10,1.9
				s1.8-5.3,6.3-8.1C38,62.8,43.5,63.6,43.5,63.6z M37.1,56.8c0,0-2.3,3.4-6,4.4c-3.7,1-7.4-0.6-7.4-0.6s2.3-3.4,6-4.4
				C33.4,55.2,37.1,56.8,37.1,56.8z M32.4,42.9c-3.2-2.1-4.5-5.9-4.5-5.9s4-0.5,7.3,1.5c3.2,2.1,4.5,5.9,4.5,5.9
				S35.7,44.9,32.4,42.9z M34.2,32.7C30.5,29,30,23.4,30,23.4s5.6,0.5,9.3,4.2c3.7,3.7,4.2,9.3,4.2,9.3S38,36.5,34.2,32.7z
				 M49.5,34.6c0,0-3.5-2.1-4.8-5.7c-1.3-3.6,0.2-7.4,0.2-7.4s3.5,2.1,4.8,5.7C50.9,30.8,49.5,34.6,49.5,34.6z M49.5,20.3
				c0,0-3.5-2.1-4.8-5.7c-1.3-3.6,0.2-7.4,0.2-7.4s3.5,2.1,4.8,5.7C50.9,16.5,49.5,20.3,49.5,20.3z M56.5,34c0,0-3.6-4.3-3.6-9.6
				c0-5.3,3.6-9.6,3.6-9.6s3.6,4.3,3.6,9.6C60.1,29.7,56.5,34,56.5,34z M68.3,28.9c-1.3,3.6-4.8,5.7-4.8,5.7s-1.5-3.8-0.2-7.4
				c1.3-3.6,4.8-5.7,4.8-5.7S69.5,25.2,68.3,28.9z M68.3,14.6c-1.3,3.6-4.8,5.7-4.8,5.7s-1.5-3.8-0.2-7.4c1.3-3.6,4.8-5.7,4.8-5.7
				S69.5,11,68.3,14.6z M74.2,27.9c3.3-4.1,8.8-5.2,8.8-5.2s0.1,5.6-3.2,9.7c-3.3,4.1-8.8,5.2-8.8,5.2S70.8,32.1,74.2,27.9z
				 M73.3,44.4c0,0,1.2-3.9,4.5-5.9c3.2-2.1,7.3-1.5,7.3-1.5s-1.2,3.9-4.5,5.9C77.3,44.9,73.3,44.4,73.3,44.4z M83.3,56.2
				c3.7,1,6,4.4,6,4.4s-3.7,1.7-7.4,0.6c-3.7-1-6-4.4-6-4.4S79.6,55.2,83.3,56.2z M75.7,71.7c-4.5-2.8-6.3-8.1-6.3-8.1
				s5.5-0.8,10,1.9c4.5,2.8,6.3,8.1,6.3,8.1S80.2,74.5,75.7,71.7z M93,70.9c-3.3-2-4.6-5.9-4.6-5.9s4-0.6,7.3,1.4
				c3.3,2,4.6,5.9,4.6,5.9S96.3,72.9,93,70.9z"/>
		</g>
	</g>
</g>
<g id="GUIAS" class="st1">
</g>
</svg>
