<?xml version="1.0" encoding="utf-8"?>
<!-- Generator: Adobe Illustrator 25.0.0, SVG Export Plug-In . SVG Version: 6.00 Build 0)  -->
<svg version="1.1" xmlns="http://www.w3.org/2000/svg" xmlns:xlink="http://www.w3.org/1999/xlink" x="0px" y="0px"
	 viewBox="0 0 595.3 155.3" style="enable-background:new 0 0 595.3 155.3;" xml:space="preserve">
<style type="text/css">
	.st0{display:none;}
</style>
<g id="Capa_1">
	<g>
		<path d="M86.9,42.1l-2.5,0.4l-4.6-16.4c-5.2-1.3-9.8-1.9-14-1.9c-10.2,0-18.2,3.6-24,10.7c-5.8,7.1-8.7,16.3-8.7,27.7
			c0,12.1,3.3,21.8,10,29.1c6.6,7.2,15.9,10.8,27.6,10.8c6.6,0,13.6-1.3,20.9-3.8l0.7,2.8c-8.2,5.7-17.5,8.5-27.8,8.5
			c-13.4,0-24.3-4.1-32.6-12.3c-8.3-8.2-12.4-19-12.4-32.4c0-14.3,4.6-25.5,13.7-33.9c9.1-8.3,21-12.5,35.6-12.5
			c7,0,14.2,0.9,21.6,2.6l0.4,0.5L86.9,42.1z"/>
		<path d="M188.5,62.1c0,14.4-4.1,25.9-12.2,34.7c-8.2,8.7-19.6,13.1-34.2,13.1c-13.9,0-24.7-4-32.3-12.1S98.3,78.8,98.3,65
			c0-14.4,4.1-25.8,12.3-34.1s19.6-12.6,34.1-12.6c14,0,24.7,3.9,32.4,11.8C184.7,37.9,188.5,48.5,188.5,62.1z M111.9,62.9
			c0,13.5,2.7,23.9,8.2,31.1c5.5,7.2,13.5,10.8,24.1,10.8c10.4,0,18.1-3.3,23.1-9.8c5-6.5,7.4-16.8,7.4-30.8
			c0-13.1-2.6-23.2-7.9-30.3c-5.3-7.1-13.4-10.6-24.4-10.6c-10.7,0-18.4,3.3-23.3,9.8C114.3,39.7,111.9,49.6,111.9,62.9z"/>
		<path d="M244.1,26c-4.4-1.5-8.4-2.2-12-2.2c-5.5,0-9.9,1.3-13.1,4c-3.3,2.7-4.9,6.4-4.9,11.1c0,2.7,0.6,5.1,1.7,7.1
			c1.1,2,2.7,3.8,4.6,5.4c1.9,1.5,4.1,2.9,6.6,4.1c2.5,1.2,5,2.4,7.6,3.6c2.9,1.2,5.7,2.6,8.4,4c2.7,1.4,5.1,3,7.3,4.9
			c2.2,1.9,3.9,4.1,5.2,6.7c1.3,2.6,2,5.7,2,9.2c0,8.3-3.2,14.6-9.7,19c-6.5,4.4-14.8,6.5-25.1,6.5c-6.6,0-13.9-1.1-21.9-3.4
			l-0.4-0.5l3.1-21.2l2.8-0.4l4.4,17.7c4.4,1.7,8.9,2.6,13.5,2.6c6.2,0,11-1.4,14.5-4.1c3.5-2.7,5.2-6.6,5.2-11.7c0-2.7-0.6-5-1.7-7
			c-1.1-2-2.6-3.8-4.5-5.2c-1.9-1.5-4-2.8-6.5-4c-2.4-1.2-4.9-2.4-7.5-3.5c-2.9-1.2-5.7-2.6-8.5-4.1c-2.7-1.5-5.2-3.1-7.4-5.1
			c-2.2-1.9-4-4.3-5.3-7.1c-1.3-2.8-2-6.1-2-9.8c0-7.5,3.1-13.3,9.4-17.5c6.3-4.1,14.1-6.2,23.4-6.2c6.6,0,13.4,0.8,20.6,2.3
			l0.4,0.4l-3.7,19.5l-2.5,0.4L244.1,26z"/>
		<path d="M335.1,118.4c0,8.6,0.2,17.3,0.5,26c-5.9,0.6-11.5,1.4-16.7,2.4l-0.9-0.7c0.1-8.6,0.2-17.3,0.2-26.2V103h-22.9
			c-8.4,0-18.6,0.1-30.6,0.3l-0.6-6.7c9.7-12.8,19.7-25.6,29.9-38.4c10.3-12.8,20.6-25.2,31-37.3l10.8-0.6
			c-0.4,13.7-0.6,26.6-0.6,38.5v35.2h21.1l0.4,9.4c-6.7-0.2-13.9-0.3-21.4-0.3V118.4z M318.1,41.6c-6.9,7.8-13.9,16.1-20.8,24.9
			c-7,8.8-13.8,17.9-20.6,27.3h41.4V41.6z"/>
		<path d="M365.9,20.3c5.4,0.2,10.6,0.2,15.8,0.2c1.9-0.1,5.1-0.2,9.4-0.4c4.4-0.2,7.3-0.2,8.8-0.2c9.1,0,16,1.7,20.7,5.1
			c4.7,3.4,7,8.3,7,14.6c0,10.2-5.5,17.2-16.5,20.9c6.4,1.1,11.4,3.5,14.8,7.2c3.4,3.7,5.2,8.4,5.2,14.2c0,8.3-3,14.7-9.1,19.3
			c-6,4.6-14.4,6.8-25.1,6.8c-2.1,0-4.4-0.1-6.9-0.2c-2.5-0.1-5.3-0.2-8.3-0.2c-5,0-10.2,0.1-15.5,0.2l-0.2-2.7l7.7-2.3
			c1-0.3,1.6-0.9,1.7-1.9c0-1.7,0.1-3.5,0.1-5.6c0-2.1,0-4.3,0-6.8V37.9c0-2.1,0-4,0-5.7c0-1.7-0.1-3.2-0.1-4.6
			c0-1.1-0.5-1.8-1.5-2.1L366,23L365.9,20.3z M387.6,59.2c2.6,0,5.2,0.1,7.8,0.1c6.1,0,10.7-1.5,13.9-4.5c3.1-3,4.7-7.3,4.7-12.9
			c0-5.9-1.6-10.2-4.8-12.8c-3.2-2.6-7.8-3.9-13.9-3.9c-1.1,0-2.3,0-3.5,0.1c-1.3,0.1-2.7,0.2-4.2,0.3V59.2z M387.6,64.2v37.8
			c1.2,0.5,2.7,0.7,4.3,0.9c1.6,0.1,3.1,0.2,4.5,0.2c6.9,0,12.1-1.7,15.7-5.1c3.6-3.4,5.4-8.4,5.4-14.8c0-6.5-1.8-11.3-5.4-14.4
			c-3.6-3.1-9.5-4.7-17.5-4.7C392.1,64,389.8,64.1,387.6,64.2z"/>
		<path d="M463.8,88.5c0,2.5,0,4.8,0,6.8c0,2,0.1,3.9,0.1,5.5c0,1,0.8,1.7,2.2,2.1l7,2.2l0.1,2.7c-5.4-0.1-10.5-0.2-15.5-0.2
			c-5,0-10.2,0.1-15.5,0.2l-0.2-2.7l7.7-2.3c1-0.3,1.6-0.9,1.7-1.9c0-1.7,0.1-3.5,0.1-5.6c0-2.1,0-4.3,0-6.8V37.9c0-2.1,0-4,0-5.7
			c0-1.7-0.1-3.2-0.1-4.6c0-1.1-0.5-1.8-1.5-2.1l-7.7-2.4l-0.1-2.7c5.4,0.2,10.5,0.2,15.5,0.2c5,0,10.1-0.1,15.5-0.2l0.2,2.7
			l-7.7,2.3c-1,0.2-1.5,0.9-1.6,1.9c0,1.5-0.1,3-0.1,4.8c0,1.7,0,3.6,0,5.6V88.5z"/>
		<g>
			<path d="M564.4,30c-7.6-7.8-18.4-11.8-32.4-11.8c-14.5,0-25.9,4.2-34.1,12.6c-8.2,8.4-12.3,19.8-12.3,34.1
				c0,13.8,3.8,24.7,11.4,32.8c4.6,4.9,10.4,8.3,17.4,10.2c4.7-5.5,10.1-33.4,8.4-36.9c-1.3-2.7-9.2-11.6-9.2-11.6l11.9,5.2
				l-3.4-15.7c0,0,7.2,11.7,8.4,13.1h0c1.1-1.4,8.4-13.1,8.4-13.1l-3.4,15.7l11.9-5.2c0,0-7.8,8.9-9.2,11.6
				c-1.7,3.4,3.4,29.9,8,36.4c6.8-2.1,12.6-5.7,17.3-10.7c8.2-8.7,12.2-20.3,12.2-34.7C575.9,48.5,572.1,37.9,564.4,30z M572.1,64.8
				c0,0-2.9,1.9-6.1,1.5c-3.2-0.4-5.5-2.9-5.5-2.9s2.9-1.9,6.1-1.5S572.1,64.8,572.1,64.8z M556.7,60.8c-4.4,0-8-3-8-3s3.6-3,8-3
				s8,3,8,3S561.2,60.8,556.7,60.8z M567.6,46.9c0,0-1.8,2.9-4.9,3.9c-3.1,1-6.3-0.2-6.3-0.2s1.8-2.9,4.9-3.9
				C564.4,45.6,567.6,46.9,567.6,46.9z M556.9,38.1c2.5-2,5.9-2,5.9-2s-0.6,3.4-3.1,5.4c-2.5,2-5.9,2-5.9,2S554.3,40.1,556.9,38.1z
				 M545.7,29c1.8-2.7,5.1-3.6,5.1-3.6s0.3,3.4-1.5,6.1s-5.1,3.6-5.1,3.6S543.9,31.6,545.7,29z M510.4,25.4c0,0,3.3,0.9,5.1,3.6
				c1.8,2.7,1.5,6.1,1.5,6.1s-3.3-0.9-5.1-3.6S510.4,25.4,510.4,25.4z M504.3,38.1c2.5,2,3.1,5.4,3.1,5.4s-3.4,0.1-5.9-2
				s-3.1-5.4-3.1-5.4S501.8,36.1,504.3,38.1z M499.8,46.6c3.1,1,4.9,3.9,4.9,3.9s-3.2,1.3-6.3,0.2c-3.1-1-4.9-3.9-4.9-3.9
				S496.8,45.6,499.8,46.6z M512.5,56.8c0,0-3.6,3-8,3s-8-3-8-3s3.6-3,8-3S512.5,56.8,512.5,56.8z M494.6,61.9
				c3.2-0.4,6.1,1.5,6.1,1.5s-2.3,2.5-5.5,2.9c-3.2,0.4-6.1-1.5-6.1-1.5S491.4,62.3,494.6,61.9z M499.8,75.1
				c-2.8,1.7-6.1,1.2-6.1,1.2s1.1-3.2,3.8-4.9c2.8-1.7,6.1-1.2,6.1-1.2S502.6,73.4,499.8,75.1z M519.7,69c0,0-1.5,4.5-5.3,6.8
				c-3.8,2.3-8.4,1.6-8.4,1.6s1.5-4.5,5.3-6.8C515,68.3,519.7,69,519.7,69z M514.2,63.3c0,0-1.9,2.8-5,3.7c-3.1,0.9-6.2-0.5-6.2-0.5
				s1.9-2.8,5-3.7C511.1,61.9,514.2,63.3,514.2,63.3z M510.3,51.5c-2.7-1.7-3.8-5-3.8-5s3.4-0.5,6.1,1.3c2.7,1.7,3.8,5,3.8,5
				S513.1,53.2,510.3,51.5z M511.9,43c-3.1-3.1-3.5-7.8-3.5-7.8s4.7,0.4,7.8,3.5c3.1,3.1,3.5,7.8,3.5,7.8S515,46.1,511.9,43z
				 M524.7,44.5c0,0-2.9-1.8-4-4.8c-1.1-3.1,0.2-6.3,0.2-6.3s2.9,1.8,4,4.8C525.9,41.3,524.7,44.5,524.7,44.5z M524.7,32.5
				c0,0-2.9-1.8-4-4.8c-1.1-3.1,0.2-6.3,0.2-6.3s2.9,1.8,4,4.8C525.9,29.3,524.7,32.5,524.7,32.5z M530.6,44c0,0-3-3.6-3-8
				c0-4.4,3-8,3-8s3,3.6,3,8C533.6,40.4,530.6,44,530.6,44z M540.5,39.7c-1.1,3.1-4,4.8-4,4.8s-1.2-3.2-0.2-6.3s4-4.8,4-4.8
				S541.6,36.7,540.5,39.7z M540.5,27.7c-1.1,3.1-4,4.8-4,4.8s-1.2-3.2-0.2-6.3s4-4.8,4-4.8S541.6,24.7,540.5,27.7z M545.5,38.9
				c2.8-3.5,7.4-4.4,7.4-4.4s0.1,4.7-2.7,8.2s-7.4,4.4-7.4,4.4S542.7,42.4,545.5,38.9z M544.7,52.8c0,0,1-3.3,3.8-5
				c2.7-1.7,6.1-1.3,6.1-1.3s-1,3.3-3.8,5S544.7,52.8,544.7,52.8z M553.2,62.7c3.1,0.9,5,3.7,5,3.7s-3.1,1.4-6.2,0.5s-5-3.7-5-3.7
				S550.1,61.9,553.2,62.7z M546.8,75.8c-3.8-2.3-5.3-6.8-5.3-6.8s4.7-0.7,8.4,1.6c3.8,2.3,5.3,6.8,5.3,6.8S550.6,78.1,546.8,75.8z
				 M561.4,75.1c-2.8-1.7-3.8-4.9-3.8-4.9s3.4-0.5,6.1,1.2s3.8,4.9,3.8,4.9S564.1,76.8,561.4,75.1z"/>
		</g>
	</g>
</g>
<g id="GUIAS" class="st0">
</g>
</svg>
