<?xml version="1.0" encoding="UTF-8"?>
<svg width="15px" height="9px" viewBox="0 0 15 9" version="1.1" xmlns="http://www.w3.org/2000/svg" xmlns:xlink="http://www.w3.org/1999/xlink">
    <title>icon/arrow right copy</title>
    <g id="Symbols" stroke="none" stroke-width="1" fill="none" fill-rule="evenodd">
        <g id="menu/copy-2" transform="translate(-1199.000000, -45.000000)" fill="#626262" fill-rule="nonzero" stroke="#626262">
            <g id="icon/arrow-right-copy" transform="translate(1206.500000, 49.500000) rotate(90.000000) translate(-1206.500000, -49.500000) translate(1203.000000, 43.000000)">
                <path d="M0.435014205,12.9873047 C0.377012021,12.9873047 0.321082182,12.9767254 0.267223011,12.9555664 C0.213363841,12.9344074 0.165719904,12.9026695 0.124289773,12.8603516 C0.0414295099,12.7757157 0,12.6741542 0,12.5556641 C0,12.4371739 0.0414295099,12.3356124 0.124289773,12.2509766 L5.80433239,6.44921875 L0.211292614,0.749023438 C0.128432351,0.664387598 0.0870028409,0.560710249 0.0870028409,0.437988281 C0.0870028409,0.315266313 0.128432351,0.211588965 0.211292614,0.126953125 C0.294152876,0.0423172852 0.395655176,0 0.515802557,0 C0.635949938,0 0.737452237,0.0423172852 0.8203125,0.126953125 L6.69921875,6.14453125 C6.78207901,6.22916709 6.82350852,6.33072857 6.82350852,6.44921875 C6.82350852,6.56770893 6.78207901,6.66927041 6.69921875,6.75390625 L0.733309659,12.8603516 C0.691879528,12.9026695 0.644235591,12.9344074 0.59037642,12.9555664 C0.53651725,12.9767254 0.484730362,12.9873047 0.435014205,12.9873047 Z" id=""></path>
            </g>
        </g>
    </g>
</svg>