<?xml version="1.0" encoding="UTF-8"?>
<svg width="31px" height="28px" viewBox="0 0 31 28" version="1.1" xmlns="http://www.w3.org/2000/svg" xmlns:xlink="http://www.w3.org/1999/xlink">
    <title>Recurso 20</title>
    <g id="PLATAFORMA" stroke="none" stroke-width="1" fill="none" fill-rule="evenodd">
        <g id="10_OBSERVATION-PAGE" transform="translate(-1222.000000, -1130.000000)" fill="#0E0E0E" fill-rule="nonzero" stroke="#0E0E0E" stroke-width="0.96">
            <g id="Recurso-20" transform="translate(1223.000000, 1131.000000)">
                <path d="M6.1146145,19.0134715 C2.2867664,17.0642487 0,13.8839378 0,10.4642487 C0,4.70207254 6.46260069,0 14.4,0 C22.3373993,0 28.8,4.70207254 28.8,10.4642487 C28.8,16.2264249 22.3373993,20.9284974 14.4,20.9284974 L14.1182969,20.9284974 C9.73890067,24.3534637 7.07100654,25.9515298 6.1146145,25.7226957 C5.29241046,25.5259685 5.29241046,23.2895605 6.1146145,19.0134715 Z M14.3337169,1.24818653 C7.07571922,1.24818653 1.15995397,5.36891192 1.15995397,10.4471503 C1.15995397,13.4906736 3.33072497,16.3290155 6.94315305,18.0559585 L7.32428078,18.2440415 L6.97629459,24.0062176 L13.7040276,19.646114 L14.3337169,19.646114 C21.5917146,19.646114 27.5903337,15.5253886 27.5903337,10.4471503 C27.5903337,5.36891192 21.5917146,1.24818653 14.3337169,1.24818653 Z" id="Shape"></path>
            </g>
        </g>
    </g>
</svg>