<svg xmlns="http://www.w3.org/2000/svg" xmlns:xlink="http://www.w3.org/1999/xlink" viewBox="0 0 521.71 154.58"><defs><style>.cls-1,.cls-7,.cls-8{fill:#010101;}.cls-2,.cls-9{fill:#fff;}.cls-3{fill:url(#Degradado_sin_nombre_6);}.cls-4{fill:url(#Degradado_sin_nombre_2);}.cls-5{fill:url(#Degradado_sin_nombre_3);}.cls-6{fill:url(#Degradado_sin_nombre_4);}.cls-7{opacity:0.2;}.cls-7,.cls-8,.cls-9{isolation:isolate;}.cls-8{opacity:0.12;}.cls-9{opacity:0.25;}</style><linearGradient id="Degradado_sin_nombre_6" x1="-653.52" y1="907.78" x2="-657.02" y2="911.29" gradientTransform="translate(12186.46 -16777.14) scale(18.52)" gradientUnits="userSpaceOnUse"><stop offset="0" stop-color="#4696d2"/><stop offset="0.01" stop-color="#4598d3"/><stop offset="0.26" stop-color="#3fb9eb"/><stop offset="0.51" stop-color="#4ac1ed"/><stop offset="0.76" stop-color="#5cc4e6"/><stop offset="1" stop-color="#60c4e5"/></linearGradient><linearGradient id="Degradado_sin_nombre_2" x1="-651.01" y1="910.15" x2="-656.06" y2="910.15" gradientTransform="translate(12186.46 -16777.14) scale(18.52)" gradientUnits="userSpaceOnUse"><stop offset="0" stop-color="#ffe00a"/><stop offset="0.41" stop-color="#fbbc0f"/><stop offset="0.78" stop-color="#f7a418"/><stop offset="1" stop-color="#f59a1c"/></linearGradient><linearGradient id="Degradado_sin_nombre_3" x1="-652.89" y1="910.62" x2="-657.64" y2="915.37" gradientTransform="translate(12186.46 -16777.14) scale(18.52)" gradientUnits="userSpaceOnUse"><stop offset="0" stop-color="#e8424a"/><stop offset="1" stop-color="#c31262"/></linearGradient><linearGradient id="Degradado_sin_nombre_4" x1="-656.55" y1="906.01" x2="-654.43" y2="908.13" gradientTransform="translate(12186.46 -16777.14) scale(18.52)" gradientUnits="userSpaceOnUse"><stop offset="0" stop-color="#32a071"/><stop offset="0.07" stop-color="#2da771"/><stop offset="0.48" stop-color="#4fb26f"/><stop offset="0.8" stop-color="#61b668"/><stop offset="1" stop-color="#64b664"/></linearGradient></defs><title>Recurso 2</title><g id="Capa_2" data-name="Capa 2"><g id="Layer_1" data-name="Layer 1"><path class="cls-1" d="M502.39,154.58H19.32A19.13,19.13,0,0,1,0,135.26V19.32A19.13,19.13,0,0,1,19.32,0H502.39a19.13,19.13,0,0,1,19.32,19.32V135.26A19.13,19.13,0,0,1,502.39,154.58Z"/><polygon class="cls-2" points="203.66 30.14 210.23 30.14 210.23 50.63 214.09 50.63 214.09 30.14 220.66 30.14 220.66 26.66 203.66 26.66 203.66 30.14"/><polygon class="cls-2" points="187.04 50.63 201.34 50.63 201.34 46.76 190.91 46.76 190.91 40.19 200.57 40.19 200.57 36.71 190.91 36.71 190.91 30.14 201.34 30.14 201.34 26.66 187.04 26.66 187.04 50.63"/><path class="cls-2" d="M171.58,41.35h8.5a6,6,0,0,1-1.81,4,8.1,8.1,0,0,1-6.3,2.59c-2.34,0-4.24-1.26-5.94-2.62s-2.56-3.47-2.56-6.27.86-4.91,2.56-6.27l.06-.06A7.31,7.31,0,0,1,172,30.14a6.78,6.78,0,0,1,5.88,2.56l.27.34,2.46-2.46-.17-.26a8.86,8.86,0,0,0-3.63-2.84,10.66,10.66,0,0,0-4.81-1.2A12.28,12.28,0,0,0,159.6,38.65a12.42,12.42,0,0,0,21.15,8.77c1.87-1.87,2.81-4.56,2.81-8V37.49h-12Z"/><polygon class="cls-2" points="237.67 30.14 244.24 30.14 244.24 50.63 247.72 50.63 247.72 30.14 254.28 30.14 254.28 26.66 237.67 26.66 237.67 30.14"/><polygon class="cls-2" points="306.45 26.66 306.45 43.85 295.96 26.85 295.85 26.66 291.77 26.66 291.77 50.63 295.25 50.63 295.25 32.64 306.63 50.63 310.32 50.63 310.32 26.66 306.45 26.66"/><rect class="cls-2" x="231.1" y="26.67" width="3.86" height="23.96"/><path class="cls-2" d="M275.93,26.28a12.26,12.26,0,0,0-12.37,12.37,12.37,12.37,0,1,0,24.73,0,12.26,12.26,0,0,0-12.36-12.37Zm8.5,12.37a9,9,0,0,1-2.59,6.29l0,0a7.31,7.31,0,0,1-5.88,2.56A8.72,8.72,0,0,1,270,44.94l0,0c-1.69-1.36-2.56-3.46-2.56-6.26a9,9,0,0,1,2.6-6.3l0,0a7.32,7.32,0,0,1,5.89-2.56,8.75,8.75,0,0,1,5.91,2.59l0,0C283.57,33.74,284.43,35.84,284.43,38.65Z"/><path class="cls-2" d="M263.17,84.25a16.25,16.25,0,0,0-16.61,16.61,16.49,16.49,0,0,0,16.61,16.62,16.26,16.26,0,0,0,16.62-16.62C279.79,90.82,272.45,84.25,263.17,84.25Zm0,26.27c-5,0-9.27-4.25-9.27-10s4.25-10,9.27-10,9.28,3.86,9.28,10C272.45,106.27,268.2,110.52,263.17,110.52ZM227.23,84.25a16.25,16.25,0,0,0-16.61,16.61,16.49,16.49,0,0,0,16.61,16.62,16.26,16.26,0,0,0,16.62-16.62C243.85,90.82,236.51,84.25,227.23,84.25Zm0,26.27c-5,0-9.27-4.25-9.27-10s4.25-10,9.27-10,9.28,3.86,9.28,10C236.51,106.27,232.26,110.52,227.23,110.52ZM184.34,89.27v7H201a14.57,14.57,0,0,1-3.86,8.88,17.09,17.09,0,0,1-12.75,5c-10.44,0-18.17-8.12-18.17-18.55A18.23,18.23,0,0,1,184.34,73a19.17,19.17,0,0,1,12.75,5l5-5a24.74,24.74,0,0,0-17.39-7c-13.91,0-25.89,11.6-25.89,25.51s12,25.5,25.89,25.5c7.73,0,13.14-2.31,17.78-7.34,4.64-4.64,6.18-11.21,6.18-16.23a14.74,14.74,0,0,0-.38-4.25Zm175.45,5.41c-1.55-3.86-5.41-10.43-13.92-10.43s-15.45,6.57-15.45,16.61c0,9.28,6.95,16.62,16.23,16.62a15.85,15.85,0,0,0,13.52-7.34l-5.41-3.87c-1.93,2.71-4.25,4.64-8.11,4.64s-6.19-1.54-8.12-5l22-9.28-.77-1.93Zm-22.42,5.41c0-6.18,5-9.66,8.5-9.66,2.71,0,5.41,1.55,6.19,3.48l-14.69,6.18Zm-18.16,15.85h7.34V67.63h-7.34Zm-11.6-28.22a12.71,12.71,0,0,0-8.88-3.86c-8.12,0-15.85,7.34-15.85,16.62a16,16,0,0,0,15.85,16.23,11.08,11.08,0,0,0,8.5-3.87h.38v2.32c0,6.19-3.47,9.66-8.88,9.66a8.59,8.59,0,0,1-8.12-5.79l-6.18,2.7a15.94,15.94,0,0,0,14.68,9.66c8.5,0,15.46-5,15.46-17V85h-7v2.7Zm-8.5,22.8c-5,0-9.27-4.25-9.27-10s4.25-10,9.27-10,8.89,4.25,8.89,10S304.14,110.52,299.11,110.52Zm94.3-42.89H376v48.31h7.34V97.77h10.05c8.11,0,15.84-5.79,15.84-15.07S401.52,67.63,393.41,67.63Zm.38,23.19H383.36V74.2h10.43a8.5,8.5,0,0,1,8.51,8.11c-.39,4.25-3.48,8.51-8.51,8.51Zm44.45-7c-5.42,0-10.83,2.32-12.76,7.34l6.57,2.71c1.55-2.71,3.87-3.48,6.57-3.48,3.87,0,7.34,2.32,7.73,6.18V97A15.36,15.36,0,0,0,439,95.07c-7,0-13.91,3.86-13.91,10.82,0,6.57,5.79,10.82,12,10.82,5,0,7.34-2.32,9.27-4.64h.39v3.87h6.95V97.39c-.77-8.51-7.34-13.53-15.45-13.53Zm-.78,26.66c-2.32,0-5.79-1.15-5.79-4.25,0-3.86,4.25-5,7.72-5A14.81,14.81,0,0,1,446,102.8,9,9,0,0,1,437.46,110.52ZM478,85l-8.12,20.87h-.38L461,85h-7.73l12.75,29.37-7.34,16.23h7.34L485.77,85Zm-64.92,30.92h7.34V67.63h-7.34Z"/><path class="cls-3" d="M40.19,29c-1.16,1.16-1.54,3.1-1.54,5.41V119.8a7.64,7.64,0,0,0,1.93,5.41l.38.39L88.88,77.68V76.9Z"/><path class="cls-4" d="M104.34,93.91,88.5,78.06V76.9l15.84-15.84.39.39,18.93,10.82c5.41,3.09,5.41,8.11,0,11.2Z"/><path class="cls-5" d="M104.73,93.52,88.5,77.29,40.19,125.6c1.93,1.93,4.64,1.93,8.12.38l56.42-32.46"/><path class="cls-6" d="M104.73,61.06,48.31,29c-3.48-1.93-6.19-1.54-8.12.39L88.5,77.29l16.23-16.23Z"/><path class="cls-7" d="M104.34,93.13l-56,31.69c-3.1,1.94-5.8,1.55-7.73,0l-.39.39.39.39c1.93,1.54,4.63,1.93,7.73,0Z"/><path class="cls-8" d="M40.19,124.82c-1.16-1.16-1.54-3.09-1.54-5.41v.39a7.64,7.64,0,0,0,1.93,5.41v-.39Zm83.47-42.51L104.34,93.13l.39.39L123.66,82.7c2.71-1.55,3.87-3.48,3.87-5.41C127.53,79.22,126,80.77,123.66,82.31Z"/><path class="cls-9" d="M48.31,29.37l75.35,42.9c2.32,1.54,3.87,3.09,3.87,5,0-1.93-1.16-3.86-3.87-5.41L48.31,29c-5.41-3.09-9.66-.77-9.66,5.41v.39C38.65,29,42.9,26.28,48.31,29.37Z"/></g></g></svg>