<svg xmlns="http://www.w3.org/2000/svg" viewBox="0 0 521.71 170.66"><defs><style>.cls-1{fill:#fff;}</style></defs><title>Recurso 1</title><g id="Capa_2" data-name="Capa 2"><g id="Layer_1" data-name="Layer 1"><path d="M521.71,147.59a23.06,23.06,0,0,1-23.06,23.07H23.06A23.07,23.07,0,0,1,0,147.59V23.06A23.07,23.07,0,0,1,23.06,0H498.65a23.06,23.06,0,0,1,23.06,23.06Z"/><path class="cls-1" d="M136.05,112.8a84.46,84.46,0,0,1-7.64,14.27c-5,7.55-12,17-20.62,17-7.7.07-9.68-5-20.13-5s-12.63,5-20.33,5C58.66,144.05,52,135.55,47.08,128,33.2,106.88,31.75,82.09,40.31,68.91,46.39,59.55,56,54.07,65,54.07c9.19,0,15,5,22.55,5,7.37,0,11.86-5,22.48-5,8,0,16.52,4.37,22.59,11.93C112.76,76.87,116,105.22,136.05,112.8Z"/><path class="cls-1" d="M102,45.62c3.86-4.95,6.79-11.94,5.73-19.09C101.39,27,94,31,89.72,36.2,85.81,41,82.59,48,83.84,54.82,90.72,55,97.84,50.93,102,45.62Z"/><path class="cls-1" d="M178.32,68.59,158.44,127.1h9.1l5.94-18h19.24l6.1,18h9.36l-20-58.51ZM183,78.21c.67,2.62,1.4,5.33,2.33,8.26L190.71,102H175.47l5.28-15.61C181.56,83.83,182.32,81.1,183,78.21Z"/><path class="cls-1" d="M233.89,83.76c-6,0-10.85,2.33-14.07,6.75l-.35-5.82h-8.1l0,.75c.24,3.62.34,7.61.34,13.34v45.09h8.85v-21a15.53,15.53,0,0,0,12.1,5.2,18.26,18.26,0,0,0,13.41-5.7c3.88-4.1,5.93-10,5.93-17,0-6.22-1.78-11.59-5.15-15.54A16.82,16.82,0,0,0,233.89,83.76Zm-2.2,7.33c7.89,0,11.42,7.31,11.42,14.55,0,9.34-4.51,15.15-11.76,15.15a10.72,10.72,0,0,1-10.42-8.22,11,11,0,0,1-.32-2.86v-7.12a14,14,0,0,1,.28-2.18c.05-.25.09-.49.13-.72A11.2,11.2,0,0,1,231.69,91.09Z"/><path class="cls-1" d="M279.47,83.76c-6,0-10.85,2.33-14.07,6.75l-.35-5.82H257l.05.75c.24,3.63.34,7.61.34,13.34v45.09h8.85v-21a15.53,15.53,0,0,0,12.1,5.2,18.3,18.3,0,0,0,13.42-5.7c3.87-4.1,5.92-10,5.92-17,0-6.22-1.78-11.59-5.15-15.54A16.82,16.82,0,0,0,279.47,83.76Zm-2.2,7.33c7.89,0,11.42,7.31,11.42,14.55,0,9.34-4.51,15.15-11.76,15.15a10.72,10.72,0,0,1-10.42-8.22,11,11,0,0,1-.32-2.86v-7.12a13.08,13.08,0,0,1,.29-2.19l.12-.71A11.2,11.2,0,0,1,277.27,91.09Z"/><path class="cls-1" d="M336.58,93.38c-8.26-3.2-10.91-5.71-10.91-10.36,0-3.91,3.11-7.86,10.06-7.86a20.07,20.07,0,0,1,10.39,2.61l.75.46,2.5-7.39-.5-.29c-1.48-.86-5.7-2.89-12.89-2.89-11.28,0-19.17,6.67-19.17,16.21,0,7.69,4.94,13.06,15.54,16.92,7.51,2.81,10.31,5.68,10.31,10.61,0,5.58-4.32,9-11.25,9a24.23,24.23,0,0,1-12.76-3.62l-.77-.49-2.38,7.55.44.29c3.34,2.23,9.63,3.85,15,3.85,15.21,0,20.61-9.28,20.61-17.22C351.51,102.62,347.18,97.57,336.58,93.38Z"/><path class="cls-1" d="M367.44,74.61l-8.68,2.73v7.35H352.4v7.08h6.36v21.67c0,5.23,1,8.91,3.06,11.23a11.38,11.38,0,0,0,8.57,3.36,20.71,20.71,0,0,0,6.84-1.06l.5-.17-.43-7.09-.85.26a13.39,13.39,0,0,1-4.11.48c-3.43,0-4.9-2.17-4.9-7.27V91.77h10.68V84.69H367.44Z"/><path class="cls-1" d="M400.05,83.76c-12.38,0-21,9.24-21,22.47,0,12.84,8.37,21.8,20.36,21.8h.08c10.13,0,21-7.06,21-22.56,0-6.3-1.95-11.71-5.64-15.65A19.69,19.69,0,0,0,400.05,83.76Zm-.25,7c8,0,11.59,7.76,11.59,15,0,8.87-4.95,15.31-11.76,15.31h-.09C392.83,121,388,114.71,388,106,388,98.4,391.62,90.75,399.8,90.75Z"/><path class="cls-1" d="M447.6,84.17l-.53-.13a8.25,8.25,0,0,0-2.2-.28,12.64,12.64,0,0,0-11.1,7.13l-.26-6.2h-7.94l.05.75c.24,3.5.33,7.43.33,12.74l-.08,28.92h8.85V104.54a22.74,22.74,0,0,1,.25-3.43c1-5.42,4.65-8.92,9.31-8.92a21.21,21.21,0,0,1,2.38.15l.94.09Z"/><path class="cls-1" d="M467.5,83.68c-11.78,0-20,9.41-20,22.89,0,13,8.19,21.38,20.86,21.38a34,34,0,0,0,14-2.69l.54-.24-1.7-6.6-.74.3a27.45,27.45,0,0,1-11.09,2c-3.85,0-12.72-1.27-13.26-12.83l28.57.08.12-.56a19.79,19.79,0,0,0,.26-3.7C485.06,94.46,480.46,83.68,467.5,83.68Zm-.59,6.73a8.74,8.74,0,0,1,6.5,2.48c2.55,2.59,3,6.41,3,8.24H456.27C457.1,96,460.29,90.41,466.91,90.41Z"/><path class="cls-1" d="M158.44,28.63a64.25,64.25,0,0,1,8.49-.57c5.71,0,9.77,1.15,12.46,3.41s4.39,5.5,4.39,10a14,14,0,0,1-4.43,10.76c-2.92,2.59-7.67,4-13.65,4a63.17,63.17,0,0,1-7.26-.33Zm4,24.53a29.34,29.34,0,0,0,4,.16c8.49,0,13.1-4.27,13.1-11.75,0-6.61-4.07-10.68-12.47-10.68a25.43,25.43,0,0,0-4.65.37Z"/><path class="cls-1" d="M198,56.4c-5.93,0-10.59-3.94-10.59-10.23,0-6.65,4.89-10.56,11-10.56,6.34,0,10.63,4.15,10.63,10.19,0,7.4-5.7,10.6-10.95,10.6Zm.14-2.71c3.83,0,6.71-3.25,6.71-7.77,0-3.36-1.87-7.59-6.62-7.59s-6.76,3.94-6.76,7.72c0,4.35,2.74,7.64,6.62,7.64Z"/><path class="cls-1" d="M215.37,36.07l3,10.06c.59,2.22,1.18,4.31,1.59,6.37h.14c.5-2,1.23-4.15,2-6.33l3.61-10.1H229L232.44,46c.82,2.34,1.46,4.48,2,6.49h.14a55.94,55.94,0,0,1,1.69-6.45l3.15-10h4L236.23,56h-3.65l-3.38-9.49a64.45,64.45,0,0,1-2-6.57h-.09a56.8,56.8,0,0,1-2,6.61L221.58,56h-3.65l-6.67-19.88Z"/><path class="cls-1" d="M247.37,41.45c0-2.1-.05-3.74-.18-5.38h3.56l.23,3.24h.09a8.36,8.36,0,0,1,7.3-3.7c3.06,0,7.81,1.65,7.81,8.47V56h-4V44.49c0-3.21-1.32-5.92-5.11-5.92a5.75,5.75,0,0,0-5.39,3.7,4.93,4.93,0,0,0-.27,1.68V56h-4Z"/><path class="cls-1" d="M272.7,26.78h4V56h-4Z"/><path class="cls-1" d="M292.38,56.4c-5.93,0-10.59-3.94-10.59-10.23,0-6.65,4.88-10.56,11-10.56,6.34,0,10.63,4.15,10.63,10.19,0,7.4-5.71,10.6-10.95,10.6Zm.14-2.71c3.83,0,6.71-3.25,6.71-7.77,0-3.36-1.88-7.59-6.62-7.59s-6.76,3.94-6.76,7.72c0,4.35,2.74,7.64,6.62,7.64Z"/><path class="cls-1" d="M324,51.18a29.92,29.92,0,0,0,.32,4.77h-3.61l-.37-2.51h-.13a8.51,8.51,0,0,1-6.76,3c-4.47,0-6.75-2.83-6.75-5.71,0-4.81,4.74-7.44,13.28-7.39v-.41c0-1.65-.5-4.65-5-4.6a11.59,11.59,0,0,0-5.8,1.47l-.91-2.42a15.49,15.49,0,0,1,7.3-1.73c6.8,0,8.45,4.15,8.45,8.14Zm-3.93-5.38c-4.38-.08-9.36.62-9.36,4.48,0,2.38,1.74,3.45,3.75,3.45a5.57,5.57,0,0,0,5.43-3.33,3.29,3.29,0,0,0,.18-1.15Z"/><path class="cls-1" d="M349.53,26.78v24c0,1.77.05,3.78.19,5.14h-3.61l-.18-3.45h-.09c-1.24,2.22-3.88,3.9-7.49,3.9-5.34,0-9.5-4.07-9.5-10.11,0-6.65,4.57-10.68,9.91-10.68,3.43,0,5.71,1.44,6.67,3h.09V26.78Zm-4,17.38a6,6,0,0,0-.19-1.56,5.8,5.8,0,0,0-5.79-4.15c-4.16,0-6.62,3.29-6.62,7.64,0,4.07,2.24,7.39,6.53,7.39a6,6,0,0,0,5.88-4.31,5.56,5.56,0,0,0,.19-1.56Z"/><path class="cls-1" d="M374.87,56.4c-5.93,0-10.59-3.94-10.59-10.23,0-6.65,4.89-10.56,11-10.56,6.35,0,10.64,4.15,10.64,10.19,0,7.4-5.71,10.6-10.95,10.6Zm.14-2.71c3.83,0,6.71-3.25,6.71-7.77,0-3.36-1.87-7.59-6.62-7.59s-6.76,3.94-6.76,7.72c0,4.35,2.74,7.64,6.62,7.64Z"/><path class="cls-1" d="M390.94,41.45c0-2.1-.05-3.74-.18-5.38h3.56l.23,3.24h.09a8.36,8.36,0,0,1,7.3-3.7c3.06,0,7.81,1.65,7.81,8.47V56h-4V44.49c0-3.21-1.32-5.92-5.11-5.92a5.75,5.75,0,0,0-5.39,3.7A4.93,4.93,0,0,0,395,44V56h-4Z"/><path class="cls-1" d="M430.79,31.3v4.77h5.75v2.75h-5.75V49.54c0,2.46.78,3.86,3,3.86a8.45,8.45,0,0,0,2.32-.24l.19,2.75a12.33,12.33,0,0,1-3.56.49,6.05,6.05,0,0,1-4.34-1.52c-1.1-1.11-1.55-2.88-1.55-5.22V38.82h-3.43V36.07h3.43V32.41Z"/><path class="cls-1" d="M441.06,26.78h4V39.19h.09a6.85,6.85,0,0,1,2.88-2.55,8.58,8.58,0,0,1,4.11-1c3,0,7.71,1.65,7.71,8.51V56h-4V44.53c0-3.25-1.32-5.92-5.11-5.92a5.79,5.79,0,0,0-5.39,3.62,4.07,4.07,0,0,0-.27,1.72V56h-4Z"/><path class="cls-1" d="M468.68,46.62c.09,4.89,3.52,6.91,7.53,6.91a16.8,16.8,0,0,0,6.12-1l.73,2.55a19.82,19.82,0,0,1-7.39,1.27c-6.76,0-10.87-4.07-10.87-10s4-10.77,10.41-10.77c7.21,0,9.08,5.71,9.08,9.37a8.51,8.51,0,0,1-.13,1.72ZM480.42,44c0-2.26-1.06-5.88-5.53-5.88-4.11,0-5.84,3.37-6.16,5.88Z"/></g></g></svg>