<?xml version="1.0" encoding="UTF-8"?>
<svg width="24px" height="24px" viewBox="0 0 24 24" version="1.1" xmlns="http://www.w3.org/2000/svg" xmlns:xlink="http://www.w3.org/1999/xlink">
    <title>Group 3</title>
    <g id="PLATAFORMA" stroke="none" stroke-width="1" fill="none" fill-rule="evenodd">
        <g id="03_00_HOME-Copy-34" transform="translate(-196.000000, -410.000000)" fill="#FFFFFF" fill-rule="nonzero">
            <g id="Group-3" transform="translate(196.000000, 410.000000)">
                <g id="edit-copia">
                    <path d="M21.4903125,1.07531248 C20.084375,-0.33062496 17.805,-0.33062496 16.3990625,1.07531248 L2.12656248,15.3478125 C2.02875,15.445625 1.95812496,15.566875 1.92125,15.7 L0.04437504,22.4759375 C-0.03281248,22.75375 0.04562496,23.05125 0.24937504,23.2553125 C0.45343752,23.4590625 0.75093752,23.5375 1.02875,23.460625 L7.80468752,21.5834375 C7.93781248,21.5465625 8.05906248,21.4759375 8.15687504,21.378125 L22.4290625,7.10531248 C23.8328125,5.69843752 23.8328125,3.42093752 22.4290625,2.01406248 L21.4903125,1.07531248 Z M3.86968752,15.8678125 L15.550625,4.18656248 L19.3178125,7.95375 L7.63656248,19.635 L3.86968752,15.8678125 Z M3.11718752,17.3778125 L6.12687504,20.3878125 L1.96375,21.54125 L3.11718752,17.3778125 Z M21.2978125,5.97406248 L20.449375,6.8225 L16.681875,3.055 L17.530625,2.20656248 C18.3115625,1.42562496 19.5778125,1.42562496 20.35875,2.20656248 L21.2978125,3.14531248 C22.0775,3.92718752 22.0775,5.1925 21.2978125,5.97406248 L21.2978125,5.97406248 Z" id="Shape"></path>
                </g>
            </g>
        </g>
    </g>
</svg>