<?xml version="1.0" encoding="UTF-8"?>
<svg width="22px" height="22px" viewBox="0 0 22 22" version="1.1" xmlns="http://www.w3.org/2000/svg" xmlns:xlink="http://www.w3.org/1999/xlink">
    <title>filtrar</title>
    <g id="Symbols" stroke="none" stroke-width="1" fill="none" fill-rule="evenodd">
        <g id="icons/filter" transform="translate(-8.000000, -8.000000)" fill="#FFFFFF" fill-rule="nonzero" stroke="#FFFFFF" stroke-width="0.729">
            <g id="filtrar" transform="translate(8.000000, 8.000000)">
                <path d="M20.7000696,0.670002258 C20.5942621,0.481310859 20.3948067,0.3645 20.1784874,0.3645 L0.962512567,0.3645 C0.746193315,0.3645 0.546737875,0.481310859 0.440930411,0.670002258 C0.335122948,0.858693656 0.339428602,1.08976388 0.452252687,1.27434895 L7.41030935,12.6603778 L7.41030935,18.2568937 C7.41030935,18.5061833 7.56495409,18.7293199 7.79833649,18.8168284 L12.9225832,20.7384268 C12.9906364,20.7639418 13.0617594,20.7765 13.1325237,20.7765 C13.2526434,20.7765 13.3717267,20.7403006 13.4731886,20.6700147 C13.6344114,20.5583069 13.7305711,20.3746387 13.7305711,20.1784922 L13.7305711,12.6603778 L20.6887473,1.27434895 C20.8015714,1.08976388 20.8058771,0.858653789 20.7000696,0.670002258 Z M12.6223435,12.1802972 C12.5649747,12.2741844 12.5345959,12.3821049 12.5345959,12.4921383 L12.5345959,19.3156068 L8.60636425,17.8425142 L8.60636425,12.4920984 C8.60636425,12.382065 8.57598546,12.2741445 8.51861661,12.1802573 L2.02879984,1.56051562 L19.1122002,1.56051562 L12.6223435,12.1802972 Z" id="Shape"></path>
            </g>
        </g>
    </g>
</svg>