<?xml version="1.0" encoding="UTF-8"?>
<svg width="28px" height="36px" viewBox="0 0 28 36" version="1.1" xmlns="http://www.w3.org/2000/svg" xmlns:xlink="http://www.w3.org/1999/xlink">
    <title>security</title>
    <g id="PLATAFORMA" stroke="none" stroke-width="1" fill="none" fill-rule="evenodd">
        <g id="10_OBSERVATION-PAGE" transform="translate(-809.000000, -1121.000000)" fill="#0E0E0E" fill-rule="nonzero" stroke="#0E0E0E">
            <g id="Group-28" transform="translate(797.000000, 1107.000000)">
                <g id="Group-21" transform="translate(13.000000, 12.000000)">
                    <g id="security" transform="translate(0.000000, 3.000000)">
                        <path d="M26.1774296,6.89289455 L13.3823321,0.075003929 C13.1925117,-0.026304642 12.9650117,-0.024882858 12.7766133,0.078558571 L0.3355625,6.8964492 C0.131523392,7.00842187 0.0049765625,7.22241411 0.0049765625,7.45524607 L0.0049765625,16.3611602 C0.012441429,23.6820391 4.34987107,30.3051329 11.0575664,33.2381054 L12.7844336,33.9906329 C12.9458164,34.0610156 13.1295938,34.0613711 13.2913321,33.9913437 L15.2371679,33.1510156 C22.0692773,30.2816719 26.5140586,23.5945938 26.5147696,16.1844921 L26.5147696,7.45524607 C26.5147696,7.2199258 26.3850234,7.00344536 26.1774296,6.89289455 L26.1774296,6.89289455 Z M25.2407696,16.1844921 C25.2393477,23.0837852 21.0999141,29.3091094 14.7384454,31.9790352 L14.7341796,31.9811679 L13.0396602,32.7127227 L11.5673086,32.0703906 C5.3235,29.3403906 1.28573045,23.1758516 1.27862107,16.3611602 L1.27862107,7.83239839 L13.0869375,1.36073437 L25.2407696,7.83701955 L25.2407696,16.1844921 Z" id="Shape" stroke-width="0.91"></path>
                        <path d="M8.38728518,15.9481054 C8.15871875,15.6804375 7.75668357,15.6488008 7.48901562,15.8773671 C7.22134768,16.1055781 7.18971089,16.5079687 7.41827732,16.7752812 L10.7831446,20.7156523 C11.0078008,20.9786992 11.4013046,21.0146016 11.6693281,20.7963437 L19.5059921,14.4206562 C19.7789921,14.1988437 19.8202266,13.7975196 19.5980586,13.5245196 C19.3762461,13.251875 18.9749219,13.2102852 18.7019219,13.4324531 L11.3479844,19.4149921 L8.38728518,15.9481054 Z" id="Path" stroke-width="1.04"></path>
                    </g>
                </g>
            </g>
        </g>
    </g>
</svg>