<svg xmlns="http://www.w3.org/2000/svg" viewBox="0 0 38.18 38.18"><defs><style>.cls-1{fill:#fff;}</style></defs><title>Recurso 7</title><g id="Capa_2" data-name="Capa 2"><g id="Male_user-1" data-name="Male user-1"><path class="cls-1" d="M27.65,0H10.54A10.55,10.55,0,0,0,0,10.54V27.65A10.55,10.55,0,0,0,10.54,38.18H27.65A10.54,10.54,0,0,0,38.18,27.65V10.54A10.55,10.55,0,0,0,27.65,0Zm7.14,27.65a7.14,7.14,0,0,1-7.14,7.14H10.54a7.15,7.15,0,0,1-7.15-7.14V10.54a7.15,7.15,0,0,1,7.15-7.15H27.65a7.15,7.15,0,0,1,7.14,7.15V27.65Z"/><path class="cls-1" d="M19.09,9.25a9.84,9.84,0,1,0,9.84,9.84A9.86,9.86,0,0,0,19.09,9.25Zm0,16.29a6.45,6.45,0,1,1,6.45-6.45A6.45,6.45,0,0,1,19.09,25.54Z"/><path class="cls-1" d="M29.34,6.38a2.48,2.48,0,0,0-1.75,4.24A2.48,2.48,0,1,0,31.1,7.11,2.47,2.47,0,0,0,29.34,6.38Z"/></g></g></svg>