<?xml version="1.0" encoding="utf-8"?>
<!-- Generator: Adobe Illustrator 24.0.1, SVG Export Plug-In . SVG Version: 6.00 Build 0)  -->
<svg version="1.1" id="Capa_1" xmlns="http://www.w3.org/2000/svg" xmlns:xlink="http://www.w3.org/1999/xlink" x="0px" y="0px"
	 viewBox="0 0 22.9 22.9" style="enable-background:new 0 0 22.9 22.9;" xml:space="preserve">
<style type="text/css">
	.st0{fill-rule:evenodd;clip-rule:evenodd;fill:#FFFFFF;}
</style>
<title>Recurso 4</title>
<g>
	<path class="st0" d="M17.1,6c-1.7,0-3.3,0.5-4.6,1.5V6H7.9v16h4.6v-9.9c0.3-1.2,1.5-2.1,2.8-2c1.5,0,1.8,0.8,1.8,2V22h4.6v-9.8
		C21.7,6.9,18.6,6,17.1,6z"/>
	<path class="st0" d="M3.6,0.9c-1.1,0-2.1,1-2.1,2.1c0,1.1,0.9,2.1,2.1,2.1C4.8,5,5.7,4.1,5.7,3C5.7,1.8,4.8,0.9,3.6,0.9z"/>
	<rect x="1.2" y="6" class="st0" width="4.5" height="16"/>
</g>
</svg>
