<?xml version="1.0" encoding="UTF-8"?>
<svg width="31px" height="35px" viewBox="0 0 31 35" version="1.1" xmlns="http://www.w3.org/2000/svg" xmlns:xlink="http://www.w3.org/1999/xlink">
    <title>like</title>
    <g id="PLATAFORMA" stroke="none" stroke-width="1" fill="none" fill-rule="evenodd">
        <g id="like" transform="translate(1.000000, 1.000000)" fill="#0E0E0E" fill-rule="nonzero">
            <path d="M28.7772187,20.803125 C29.2457813,20.2800937 29.53125,19.5897187 29.53125,18.834375 C29.53125,17.2062187 28.2062812,15.88125 26.578125,15.88125 L20.8464375,15.88125 C21.4140937,14.1585937 21.65625,11.872875 21.65625,10.8930937 L21.65625,9.909375 C21.65625,7.7385 19.889625,5.971875 17.71875,5.971875 L16.734375,5.971875 C16.282875,5.971875 15.889125,6.279 15.7795312,6.717375 L15.243375,8.86265625 C14.4919687,11.8669687 12.1065,15.1816875 9.6376875,15.784125 C9.20521875,14.6895 8.1375,13.9125 6.890625,13.9125 L0.984375,13.9125 C0.441,13.9125 0,14.3535 0,14.896875 L0,32.615625 C0,33.159 0.441,33.6 0.984375,33.6 L6.890625,33.6 C8.06465625,33.6 9.08053125,32.9115937 9.5563125,31.9167188 L12.938625,33.0441563 C14.0444062,33.4129688 15.1967812,33.6 16.3629375,33.6 L24.609375,33.6 C26.2375312,33.6 27.5625,32.2750312 27.5625,30.646875 C27.5625,30.2629687 27.489,29.8954687 27.355125,29.5588125 C28.60725,29.2169063 29.53125,28.069125 29.53125,26.709375 C29.53125,25.9540312 29.2457813,25.2636563 28.7772187,24.740625 C29.2457813,24.2175937 29.53125,23.5272188 29.53125,22.771875 C29.53125,22.0165312 29.2457813,21.3261563 28.7772187,20.803125 Z M7.875,30.646875 C7.875,31.1895938 7.43334375,31.63125 6.890625,31.63125 L1.96875,31.63125 L1.96875,15.88125 L6.890625,15.88125 C7.43334375,15.88125 7.875,16.3229063 7.875,16.865625 L7.875,30.646875 Z M24.609375,21.7875 L26.578125,21.7875 C27.1208437,21.7875 27.5625,22.2291563 27.5625,22.771875 C27.5625,23.3145938 27.1208437,23.75625 26.578125,23.75625 L24.609375,23.75625 C24.066,23.75625 23.625,24.19725 23.625,24.740625 C23.625,25.284 24.066,25.725 24.609375,25.725 L26.578125,25.725 C27.1208437,25.725 27.5625,26.1666563 27.5625,26.709375 C27.5625,27.2520938 27.1208437,27.69375 26.578125,27.69375 L24.609375,27.69375 C24.066,27.69375 23.625,28.13475 23.625,28.678125 C23.625,29.2215 24.066,29.6625 24.609375,29.6625 C25.1520937,29.6625 25.59375,30.1041563 25.59375,30.646875 C25.59375,31.1895938 25.1520937,31.63125 24.609375,31.63125 L16.3629375,31.63125 C15.40875,31.63125 14.4657187,31.4783438 13.56075,31.1764687 L9.84375,29.9374688 L9.84375,17.7568125 C11.3879063,17.4634687 12.89925,16.4856562 14.2635937,14.8850625 C15.5957812,13.321875 16.6759688,11.2494375 17.1530625,9.34040625 L17.5028437,7.940625 L17.71875,7.940625 C18.8041875,7.940625 19.6875,8.8239375 19.6875,9.909375 L19.6875,10.8930938 C19.6875,12.2147812 19.2740625,14.749875 18.745125,15.88125 L16.734375,15.88125 C16.191,15.88125 15.75,16.32225 15.75,16.865625 C15.75,17.409 16.191,17.85 16.734375,17.85 L26.578125,17.85 C27.1208437,17.85 27.5625,18.2916563 27.5625,18.834375 C27.5625,19.3770938 27.1208437,19.81875 26.578125,19.81875 L24.609375,19.81875 C24.066,19.81875 23.625,20.25975 23.625,20.803125 C23.625,21.3465 24.066,21.7875 24.609375,21.7875 Z" id="Shape" stroke="#FFFFFF" stroke-width="0.5"></path>
            <circle id="Oval" cx="4.921875" cy="28.678125" r="1"></circle>
            <path d="M18.703125,0 C18.1594875,0 17.71875,0.4407375 17.71875,0.984375 L17.71875,3.01875 C17.71875,3.5623875 18.1594875,4.003125 18.703125,4.003125 C19.2467625,4.003125 19.6875,3.5623875 19.6875,3.01875 L19.6875,0.984375 C19.6875,0.4407375 19.2467625,0 18.703125,0 Z" id="Path" stroke="#FFFFFF" stroke-width="0.7"></path>
            <path d="M14.52675,4.3409625 L13.1346469,2.94885938 C12.7502813,2.56442813 12.126975,2.56442813 11.7425438,2.94885938 C11.3581125,3.33329063 11.3581125,3.95653125 11.7425438,4.3409625 L13.1346469,5.73306562 C13.5190125,6.11743125 14.1423844,6.11749687 14.52675,5.73306562 C14.9111813,5.34863437 14.9111813,4.72539375 14.52675,4.3409625 Z" id="Path" stroke="#FFFFFF" stroke-width="0.7"></path>
            <path d="M25.6637063,2.94885938 C25.2793406,2.56442813 24.6560344,2.56442813 24.2716031,2.94885938 L22.8795,4.34089688 C22.4950688,4.72532813 22.4950688,5.34856875 22.8795,5.733 C23.2638656,6.11743125 23.8871719,6.11749688 24.2716031,5.73306563 L25.6637063,4.3409625 C26.0481375,3.95653125 26.0481375,3.33329063 25.6637063,2.94885938 Z" id="Path" stroke="#FFFFFF" stroke-width="0.7"></path>
        </g>
    </g>
</svg>