<?xml version="1.0" encoding="utf-8"?>
<!-- Generator: Adobe Illustrator 24.0.1, SVG Export Plug-In . SVG Version: 6.00 Build 0)  -->
<svg version="1.1" id="Capa_1" xmlns="http://www.w3.org/2000/svg" xmlns:xlink="http://www.w3.org/1999/xlink" x="0px" y="0px"
	 viewBox="0 0 88 37" style="enable-background:new 0 0 88 37;" xml:space="preserve">
<style type="text/css">
	.st0{enable-background:new    ;}
	.st1{fill:#333;}
</style>
<title>icons/logo</title>
<g id="Symbols">
	<g id="menu_x2F_principal" transform="translate(-29.000000, -29.000000)">
		<g id="icons_x2F_logo" transform="translate(26.000000, 28.000000)">
			<g class="st0">
				<path class="st1" d="M19.8,23.1v6.2H3.4v-28h6.4v21.8H19.8z"/>
				<path class="st1" d="M21.2,19.2c0-6,4.7-10.6,10.6-10.6c5.9,0,10.6,4.6,10.6,10.6s-4.7,10.6-10.6,10.6
					C25.9,29.8,21.2,25.2,21.2,19.2z M36.4,19.2c0-2.8-2-4.7-4.6-4.7s-4.6,1.9-4.6,4.7c0,2.8,2,4.7,4.6,4.7S36.4,22.1,36.4,19.2z"/>
				<path class="st1" d="M66.3,9.2v19c0,6.7-5.2,9.6-10.6,9.6c-4.2,0-7.6-1.6-9.5-4.8l5.1-3c0.8,1.4,1.9,2.5,4.6,2.5
					c2.8,0,4.5-1.4,4.5-4.3v-1.8C59.2,28,57.2,29,54.6,29c-5.7,0-9.8-4.6-9.8-10.2c0-5.5,4.2-10.2,9.8-10.2c2.6,0,4.5,1,5.8,2.6v-2
					H66.3z M60.5,18.8c0-2.8-2-4.6-4.8-4.6c-2.8,0-4.8,1.9-4.8,4.6s2,4.6,4.8,4.6C58.5,23.5,60.5,21.6,60.5,18.8z"/>
				<path class="st1" d="M69.7,19.2c0-6,4.7-10.6,10.6-10.6c5.9,0,10.6,4.6,10.6,10.6s-4.7,10.6-10.6,10.6
					C74.4,29.8,69.7,25.2,69.7,19.2z M84.9,19.2c0-2.8-2-4.7-4.6-4.7s-4.6,1.9-4.6,4.7c0,2.8,2,4.7,4.6,4.7S84.9,22.1,84.9,19.2z"/>
			</g>
		</g>
	</g>
</g>
</svg>
