<?xml version="1.0" encoding="UTF-8"?>
<svg width="17px" height="12px" viewBox="0 0 17 12" version="1.1" xmlns="http://www.w3.org/2000/svg" xmlns:xlink="http://www.w3.org/1999/xlink">
    <title>Group 6 Copy 4</title>
    <g id="PLATAFORMA" stroke="none" stroke-width="1" fill="none" fill-rule="evenodd">
        <g id="10_OBSERVATION-PAGE-Copy" transform="translate(-659.000000, -1399.000000)" fill="#626262" fill-rule="nonzero" stroke="#626262" stroke-width="1.5">
            <g id="Group-6-Copy-4" transform="translate(660.000000, 1400.000000)">
                <g id="Group-5-Copy" transform="translate(7.500000, 5.000000) scale(-1, 1) translate(-7.500000, -5.000000) ">
                    <path d="M3.57377049,12 C3.49726738,12 3.42349762,11.9853033 3.35245902,11.9559095 C3.28142041,11.9265157 3.21857951,11.8824256 3.16393443,11.8236379 C3.05464426,11.7060626 3,11.5649744 3,11.4003689 C3,11.2357635 3.05464426,11.0946752 3.16393443,10.9770999 L10.6557377,2.91735277 L6.9751171,-0.959463715 C6.86582693,-1.07703902 6.81118267,-1.22106662 6.81118267,-1.39155082 C6.81118267,-1.56203502 6.86582693,-1.70606261 6.9751171,-1.82363792 C7.08440726,-1.94121323 7.2182857,-2 7.37675644,-2 C7.53522718,-2 7.66910562,-1.94121323 7.77839578,-1.82363792 L11.8360656,2.49408377 C11.9453557,2.61165908 12,2.75274734 12,2.91735277 C12,3.0819582 11.9453557,3.22304646 11.8360656,3.34062177 L3.96721311,11.8236379 C3.91256803,11.8824256 3.84972713,11.9265157 3.77868852,11.9559095 C3.70764992,11.9853033 3.63934459,12 3.57377049,12 Z" id="" transform="translate(7.500000, 5.000000) rotate(90.000000) translate(-7.500000, -5.000000) "></path>
                </g>
            </g>
        </g>
    </g>
</svg>