<?xml version="1.0" encoding="UTF-8"?>
<svg width="65px" height="23px" viewBox="0 0 65 23" version="1.1" xmlns="http://www.w3.org/2000/svg" xmlns:xlink="http://www.w3.org/1999/xlink">
    <title>id/artportalen</title>
    <g id="id/artportalen" stroke="none" stroke-width="1" fill="none" fill-rule="evenodd">
        <path d="M3.9677529,12.739499 L4.45332956,11.1210461 L7.23383395,11.1210461 L7.72519127,12.739499 L9.90450553,12.739499 L6.79450269,4.07601557 L4.88688014,4.07601557 L1.8,12.739499 L3.9677529,12.739499 Z M6.7482573,9.5085433 L4.93890621,9.5085433 L5.84069141,6.503695 L6.7482573,9.5085433 Z M12.3901955,12.739499 L12.3901955,8.66361566 C12.5636158,8.26693602 12.9567016,8.06859619 13.5694531,8.06859619 L13.5694531,8.06859619 L14.211108,8.11619775 L14.245792,6.25378682 C14.0916407,6.20618526 13.9105129,6.18238449 13.7024086,6.18238449 C13.1166336,6.18238449 12.6599603,6.4977448 12.3323888,7.12846544 L12.3323888,7.12846544 L12.2688014,6.30138838 L10.4421082,6.30138838 L10.4421082,12.739499 L12.3901955,12.739499 Z M17.4887504,12.8585029 C17.8702749,12.8585029 18.2363842,12.8009844 18.5870785,12.6859473 L18.5870785,12.6859473 L18.5870785,11.2519503 C18.4560499,11.2757511 18.294191,11.2876515 18.1015018,11.2876515 C17.851006,11.2876515 17.6833664,11.24005 17.5985832,11.1448468 C17.5137999,11.0496437 17.4714083,10.8810549 17.4714083,10.6390803 L17.4714083,10.6390803 L17.4714083,7.69373393 L18.5003684,7.69373393 L18.5003684,6.30138838 L17.4714083,6.30138838 L17.4714083,4.70078601 L15.5233211,4.70078601 L15.5233211,6.30138838 L14.725588,6.30138838 L14.725588,7.69373393 L15.5233211,7.69373393 L15.5233211,10.8889885 C15.5233211,11.5514435 15.683253,12.0453096 16.003117,12.3705869 C16.322981,12.6958642 16.8181921,12.8585029 17.4887504,12.8585029 Z M21.2288467,15.21478 L21.2288467,12.2099317 C21.5988099,12.6423125 22.0708983,12.8585029 22.6451119,12.8585029 C23.388892,12.8585029 23.9794843,12.5600015 24.4168886,11.9629986 C24.854293,11.3659957 25.0729952,10.567678 25.0729952,9.56804525 L25.0729952,9.56804525 L25.0729952,9.47284214 C25.0729952,8.44940865 24.8591102,7.64514067 24.4313403,7.0600382 C24.0035704,6.47493572 23.4043072,6.18238449 22.6335506,6.18238449 C22.0246529,6.18238449 21.5332956,6.42039227 21.1594786,6.89640785 L21.1594786,6.89640785 L21.1016719,6.30138838 L19.2807594,6.30138838 L19.2807594,15.21478 L21.2288467,15.21478 Z M22.165316,11.3114523 C21.7105696,11.3114523 21.3984131,11.1329464 21.2288467,10.7759348 L21.2288467,10.7759348 L21.2288467,8.24115184 C21.382998,7.90000735 21.6913007,7.7294351 22.1537546,7.7294351 C22.8011901,7.7294351 23.1249079,8.30065379 23.1249079,9.44309116 L23.1249079,9.44309116 L23.1249079,9.65729817 C23.105639,10.7600676 22.785775,11.3114523 22.165316,11.3114523 Z M28.7090394,12.8585029 C29.6339473,12.8585029 30.3671295,12.5639683 30.908586,11.974899 C31.4500425,11.3858297 31.7207708,10.5894953 31.7207708,9.58589583 L31.7207708,9.58589583 L31.7207708,9.5144935 C31.7207708,8.48709322 31.451006,7.67489165 30.9114763,7.07788878 C30.3719467,6.48088592 29.6339473,6.18238449 28.697478,6.18238449 C28.0847266,6.18238449 27.5509776,6.31725556 27.0962312,6.58699772 C26.6414848,6.85673988 26.2927175,7.24251084 26.0499292,7.74431059 C25.8071408,8.24611034 25.6857467,8.81832072 25.6857467,9.46094175 L25.6857467,9.46094175 L25.6915273,9.80010284 C25.733919,10.7402336 26.0248796,11.4849996 26.5644092,12.0344009 C27.1039388,12.5838022 27.8188155,12.8585029 28.7090394,12.8585029 Z M28.7090394,11.3114523 C28.3544914,11.3114523 28.0866534,11.1726144 27.9055256,10.8949387 C27.7243978,10.6172629 27.6338339,10.1809153 27.6338339,9.58589583 L27.6338339,9.58589583 L27.6396146,9.22293396 C27.6935676,8.22726805 28.0461887,7.7294351 28.697478,7.7294351 C29.4142817,7.7294351 29.7726835,8.30660398 29.7726835,9.46094175 L29.7726835,9.46094175 L29.7726835,9.66324837 C29.7572683,10.762051 29.4027203,11.3114523 28.7090394,11.3114523 Z M34.5417399,12.739499 L34.5417399,8.66361566 C34.7151601,8.26693602 35.108246,8.06859619 35.7209974,8.06859619 L35.7209974,8.06859619 L36.3626523,8.11619775 L36.3973364,6.25378682 C36.243185,6.20618526 36.0620572,6.18238449 35.853953,6.18238449 C35.268178,6.18238449 34.8115047,6.4977448 34.4839331,7.12846544 L34.4839331,7.12846544 L34.4203457,6.30138838 L32.5936526,6.30138838 L32.5936526,12.739499 L34.5417399,12.739499 Z M39.6402947,12.8585029 C40.0218192,12.8585029 40.3879286,12.8009844 40.7386228,12.6859473 L40.7386228,12.6859473 L40.7386228,11.2519503 C40.6075942,11.2757511 40.4457353,11.2876515 40.2530462,11.2876515 C40.0025503,11.2876515 39.8349107,11.24005 39.7501275,11.1448468 C39.6653443,11.0496437 39.6229527,10.8810549 39.6229527,10.6390803 L39.6229527,10.6390803 L39.6229527,7.69373393 L40.6519127,7.69373393 L40.6519127,6.30138838 L39.6229527,6.30138838 L39.6229527,4.70078601 L37.6748654,4.70078601 L37.6748654,6.30138838 L36.8771323,6.30138838 L36.8771323,7.69373393 L37.6748654,7.69373393 L37.6748654,10.8889885 C37.6748654,11.5514435 37.8347974,12.0453096 38.1546614,12.3705869 C38.4745254,12.6958642 38.9697365,12.8585029 39.6402947,12.8585029 Z M43.2532162,12.8585029 C43.896798,12.8585029 44.3977897,12.6264453 44.7561916,12.1623301 C44.8101445,12.4162051 44.871805,12.6085947 44.9411731,12.739499 L44.9411731,12.739499 L46.8892604,12.739499 L46.8892604,12.6383457 C46.719694,12.3249688 46.631057,11.872754 46.6233494,11.2817013 L46.6233494,11.2817013 L46.6233494,8.43155807 C46.611788,7.7334019 46.3747804,7.18400059 45.9123264,6.78335415 C45.4498725,6.38270771 44.819779,6.18238449 44.0220459,6.18238449 C43.2243128,6.18238449 42.5682063,6.37675751 42.0537263,6.76550356 C41.5392462,7.15424961 41.2820062,7.66001616 41.2820062,8.2828032 L41.2820062,8.2828032 L43.2300935,8.2828032 C43.2300935,7.81472122 43.4613205,7.58068023 43.9237744,7.58068023 C44.4209124,7.58068023 44.6694814,7.87620657 44.6694814,8.46725924 L44.6694814,8.46725924 L44.6694814,8.80642033 L44.0682913,8.80642033 C43.1125531,8.80642033 42.3841882,8.98492617 41.8831964,9.34193785 C41.3822046,9.69894953 41.1317087,10.2265335 41.1317087,10.9246896 C41.1317087,11.4800411 41.3378861,11.9411812 41.7502409,12.3081099 C42.1625956,12.6750386 42.6635874,12.8585029 43.2532162,12.8585029 Z M43.7214508,11.4304562 C43.5364693,11.4304562 43.3842448,11.3739293 43.2647776,11.2608756 C43.1453103,11.1478219 43.0855767,11.0000588 43.0855767,10.8175861 C43.0855767,10.1908323 43.4247095,9.87745537 44.1029753,9.87745537 L44.1029753,9.87745537 L44.6694814,9.87745537 L44.6694814,10.9068391 C44.6001133,11.0417101 44.4854633,11.1626974 44.3255313,11.2698009 C44.1655993,11.3769044 43.9642392,11.4304562 43.7214508,11.4304562 Z M49.7564749,12.739499 L49.7564749,3.6 L47.802607,3.6 L47.802607,12.739499 L49.7564749,12.739499 Z M53.9821479,12.8585029 C54.494701,12.8585029 54.9735336,12.7563579 55.4186455,12.5520679 C55.8637574,12.3477779 56.2077076,12.0730772 56.4504959,11.7279659 L56.4504959,11.7279659 L55.560272,10.6450305 C55.2134316,11.0893117 54.7317087,11.3114523 54.1151034,11.3114523 C53.7412865,11.3114523 53.4368376,11.2083156 53.2017569,11.0020422 C52.9666761,10.7957688 52.8144517,10.5121428 52.7450836,10.1511643 L52.7450836,10.1511643 L56.6181354,10.1511643 L56.6181354,9.37168883 C56.6181354,8.36808933 56.3637858,7.58563873 55.8550864,7.02433703 C55.3463871,6.46303533 54.6527061,6.18238449 53.7740436,6.18238449 C53.1497308,6.18238449 52.6102012,6.32023066 52.1554548,6.59592301 C51.7007084,6.87161537 51.3548314,7.26135312 51.1178237,7.76513627 C50.8808161,8.26891942 50.7623123,8.85005509 50.7623123,9.5085433 L50.7623123,9.5085433 L50.7623123,9.67514875 C50.7623123,10.6192463 51.0590536,11.3858297 51.6525361,11.974899 C52.2460187,12.5639683 53.022556,12.8585029 53.9821479,12.8585029 Z M54.7105129,8.89567325 L52.7450836,8.89567325 C52.8529895,8.11818115 53.1921224,7.7294351 53.7624823,7.7294351 C54.0707849,7.7294351 54.3077926,7.81769632 54.4735052,7.99421876 C54.6392179,8.1707412 54.7182205,8.41965768 54.7105129,8.74096819 L54.7105129,8.74096819 L54.7105129,8.89567325 Z M59.3119297,12.739499 L59.3119297,8.19355028 C59.4969113,7.88414016 59.7801644,7.7294351 60.1616889,7.7294351 C60.496968,7.7294351 60.728195,7.80579593 60.8553698,7.95851759 C60.9825446,8.11123926 61.046132,8.35023874 61.046132,8.67551605 L61.046132,8.67551605 L61.046132,12.739499 L63,12.739499 L63,8.59221333 C62.9884387,7.78695365 62.8217625,7.18400059 62.4999717,6.78335415 C62.1781808,6.38270771 61.6916407,6.18238449 61.0403514,6.18238449 C60.2811561,6.18238449 59.6857467,6.47394402 59.254123,7.0570631 L59.254123,7.0570631 L59.1905356,6.30138838 L57.3638424,6.30138838 L57.3638424,12.739499 L59.3119297,12.739499 Z M3.28274299,21.5404981 L3.28274299,19.0176155 L3.89260414,19.0176155 L3.89260414,18.3214427 L3.28274299,18.3214427 L3.28274299,18.0745097 C3.28274299,17.8127011 3.43015018,17.6817968 3.72496458,17.6817968 C3.82516294,17.6817968 3.90512893,17.6907221 3.96486257,17.7085727 L3.96486257,17.7085727 L3.96197223,16.9707485 C3.79625956,16.9290972 3.64403514,16.9082715 3.50529895,16.9082715 C3.12570133,16.9082715 2.83088694,17.0094248 2.62085577,17.2117314 C2.4108246,17.4140381 2.30580901,17.6986557 2.30580901,18.0655844 L2.30580901,18.0655844 L2.30580901,18.3214427 L1.85202607,18.3214427 L1.85202607,19.0176155 L2.30580901,19.0176155 L2.30580901,21.5404981 L3.28274299,21.5404981 Z M5.06839331,21.5404981 L5.06839331,19.5025564 C5.15510343,19.3042166 5.35164636,19.2050466 5.6580221,19.2050466 L5.6580221,19.2050466 L5.97884953,19.2288474 L5.99619156,18.297642 C5.9191159,18.2738412 5.828552,18.2619408 5.72449986,18.2619408 C5.43161235,18.2619408 5.20327572,18.419621 5.03948994,18.7349813 L5.03948994,18.7349813 L5.00769623,18.3214427 L4.09434967,18.3214427 L4.09434967,21.5404981 L5.06839331,21.5404981 Z M7.37430434,17.9108793 C7.55735903,17.9108793 7.71102862,17.8543525 7.83531312,17.7412988 C7.95959762,17.6282451 8.02173987,17.4874238 8.02173987,17.3188349 C8.02173987,17.1482627 7.95863417,17.0049622 7.83242278,16.8889334 C7.70621139,16.7729046 7.55350524,16.7148902 7.37430434,16.7148902 C7.19317654,16.7148902 7.03950694,16.7729046 6.91329555,16.8889334 C6.78708416,17.0049622 6.72397846,17.1482627 6.72397846,17.3188349 C6.72397846,17.4874238 6.78612071,17.6282451 6.91040521,17.7412988 C7.03468971,17.8543525 7.18932275,17.9108793 7.37430434,17.9108793 Z M7.37430434,17.6282451 C7.27988665,17.6282451 7.20618305,17.5984941 7.15319354,17.5389921 C7.10020402,17.4794902 7.07370927,17.4061045 7.07370927,17.3188349 C7.07370927,17.2315654 7.10020402,17.157188 7.15319354,17.0957026 C7.20618305,17.0342173 7.27988665,17.0034746 7.37430434,17.0034746 C7.46679513,17.0034746 7.53953528,17.0342173 7.59252479,17.0957026 C7.64551431,17.157188 7.67200907,17.2315654 7.67200907,17.3188349 C7.67200907,17.4061045 7.64551431,17.4794902 7.59252479,17.5389921 C7.53953528,17.5984941 7.46679513,17.6282451 7.37430434,17.6282451 Z M7.01301218,21.6 C7.33480306,21.6 7.58529895,21.4839712 7.76449986,21.2519136 C7.79147634,21.3788511 7.8223066,21.4750459 7.85699065,21.5404981 L7.85699065,21.5404981 L8.83103429,21.5404981 L8.83103429,21.4899214 C8.74625106,21.3332329 8.70193256,21.1071255 8.69807878,20.8115992 L8.69807878,20.8115992 L8.69807878,19.3865276 C8.6922981,19.0374495 8.57379428,18.7627488 8.3425673,18.5624256 C8.11134032,18.3621024 7.79629357,18.2619408 7.39742703,18.2619408 C6.9985605,18.2619408 6.67050723,18.3591273 6.41326721,18.5535003 C6.1560272,18.7478734 6.0274072,19.0007566 6.0274072,19.3121502 L6.0274072,19.3121502 L7.00145084,19.3121502 C7.00145084,19.0781092 7.11706432,18.9610887 7.3482913,18.9610887 C7.5968603,18.9610887 7.7211448,19.1088518 7.7211448,19.4043782 L7.7211448,19.4043782 L7.7211448,19.5739587 L7.42054973,19.5739587 C6.94268065,19.5739587 6.57849816,19.6632116 6.32800227,19.8417175 C6.07750638,20.0202233 5.95225843,20.2840153 5.95225843,20.6330934 C5.95225843,20.9107691 6.05534712,21.1413392 6.26152451,21.3248035 C6.4677019,21.5082678 6.71819779,21.6 7.01301218,21.6 Z M7.2471295,20.8859766 C7.15463871,20.8859766 7.07852649,20.8577132 7.01879286,20.8011864 C6.95905922,20.7446595 6.92919241,20.6707779 6.92919241,20.5795416 C6.92919241,20.2661647 7.09875886,20.1094762 7.43789175,20.1094762 L7.43789175,20.1094762 L7.7211448,20.1094762 L7.7211448,20.6241681 C7.68646075,20.6916036 7.62913573,20.7520973 7.54916974,20.805649 C7.46920374,20.8592008 7.36852366,20.8859766 7.2471295,20.8859766 Z M10.0443978,21.5404981 L10.0443978,19.2675237 C10.1368886,19.1128186 10.2785152,19.0354661 10.4692774,19.0354661 C10.636917,19.0354661 10.7525305,19.0736465 10.8161179,19.1500073 C10.8797053,19.2263682 10.911499,19.3458679 10.911499,19.5085066 L10.911499,19.5085066 L10.911499,21.5404981 L11.888433,21.5404981 L11.888433,19.4668552 C11.8826523,19.0642254 11.7993143,18.7627488 11.6384188,18.5624256 C11.4775234,18.3621024 11.2342533,18.2619408 10.9086087,18.2619408 C10.5290111,18.2619408 10.2313063,18.4077206 10.0154945,18.6992801 L10.0154945,18.6992801 L9.98370077,18.3214427 L9.07035421,18.3214427 L9.07035421,21.5404981 L10.0443978,21.5404981 Z M14.4076509,21.5404981 L14.6504392,20.7312716 L16.0406914,20.7312716 L16.2863701,21.5404981 L17.3760272,21.5404981 L15.8210258,17.2087563 L14.8672145,17.2087563 L13.3237744,21.5404981 L14.4076509,21.5404981 Z M15.7979031,19.9250202 L14.8932275,19.9250202 L15.3441201,18.422596 L15.7979031,19.9250202 Z M18.4708869,21.5404981 L18.4708869,19.5025564 C18.5575971,19.3042166 18.75414,19.2050466 19.0605157,19.2050466 L19.0605157,19.2050466 L19.3813432,19.2288474 L19.3986852,18.297642 C19.3216095,18.2738412 19.2310456,18.2619408 19.1269935,18.2619408 C18.834106,18.2619408 18.6057693,18.419621 18.4419836,18.7349813 L18.4419836,18.7349813 L18.4101899,18.3214427 L17.4968433,18.3214427 L17.4968433,21.5404981 L18.4708869,21.5404981 Z M20.8721791,21.6 C21.0629413,21.6 21.245996,21.5712407 21.4213432,21.5137222 L21.4213432,21.5137222 L21.4213432,20.7967237 C21.3558288,20.8086241 21.2748994,20.8145743 21.1785548,20.8145743 C21.0533069,20.8145743 20.9694871,20.7907735 20.9270955,20.743172 C20.8847039,20.6955704 20.8635081,20.611276 20.8635081,20.4902887 L20.8635081,20.4902887 L20.8635081,19.0176155 L21.3779881,19.0176155 L21.3779881,18.3214427 L20.8635081,18.3214427 L20.8635081,17.5211416 L19.8894644,17.5211416 L19.8894644,18.3214427 L19.4905979,18.3214427 L19.4905979,19.0176155 L19.8894644,19.0176155 L19.8894644,20.6152428 C19.8894644,20.9464703 19.9694304,21.1934034 20.1293624,21.356042 C20.2892944,21.5186807 20.5369,21.6 20.8721791,21.6 Z M23.0422443,21.5404981 C23.4064267,21.5385147 23.7364069,21.4487659 24.0321848,21.2712517 C24.3279626,21.0937376 24.5572627,20.8477962 24.720085,20.5334276 C24.8829073,20.219059 24.9643185,19.8635349 24.9643185,19.4668552 L24.9643185,19.4668552 L24.9643185,19.2675237 C24.9623916,18.8748108 24.8780901,18.5202784 24.711414,18.2039264 C24.5447379,17.8875744 24.3130292,17.6426247 24.0162879,17.4690774 C23.7195466,17.29553 23.3852309,17.2087563 23.0133409,17.2087563 L23.0133409,17.2087563 L21.6577727,17.2087563 L21.6577727,21.5404981 L23.0422443,21.5404981 Z M23.0249022,20.7372218 L22.6722811,20.7372218 L22.6722811,18.0150077 L23.0133409,18.0150077 C23.3120091,18.0150077 23.5393823,18.1211195 23.6954605,18.3333431 C23.8515387,18.5455667 23.9295778,18.8609271 23.9295778,19.2794241 L23.9295778,19.2794241 L23.9295778,19.4668552 C23.9295778,19.8873356 23.8515387,20.2041835 23.6954605,20.4173988 C23.5393823,20.6306141 23.3158629,20.7372218 23.0249022,20.7372218 L23.0249022,20.7372218 Z M26.2094758,21.6 C26.5312666,21.6 26.7817625,21.4839712 26.9609634,21.2519136 C26.9879399,21.3788511 27.0187702,21.4750459 27.0534542,21.5404981 L27.0534542,21.5404981 L28.0274979,21.5404981 L28.0274979,21.4899214 C27.9427147,21.3332329 27.8983961,21.1071255 27.8945424,20.8115992 L27.8945424,20.8115992 L27.8945424,19.3865276 C27.8887617,19.0374495 27.7702579,18.7627488 27.5390309,18.5624256 C27.3078039,18.3621024 26.9927572,18.2619408 26.5938906,18.2619408 C26.1950241,18.2619408 25.8669708,18.3591273 25.6097308,18.5535003 C25.3524908,18.7478734 25.2238708,19.0007566 25.2238708,19.3121502 L25.2238708,19.3121502 L26.1979144,19.3121502 C26.1979144,19.0781092 26.3135279,18.9610887 26.5447549,18.9610887 C26.7933239,18.9610887 26.9176084,19.1088518 26.9176084,19.4043782 L26.9176084,19.4043782 L26.9176084,19.5739587 L26.6170133,19.5739587 C26.1391442,19.5739587 25.7749617,19.6632116 25.5244659,19.8417175 C25.27397,20.0202233 25.148722,20.2840153 25.148722,20.6330934 C25.148722,20.9107691 25.2518107,21.1413392 25.4579881,21.3248035 C25.6641655,21.5082678 25.9146614,21.6 26.2094758,21.6 Z M26.4435931,20.8859766 C26.3511023,20.8859766 26.2749901,20.8577132 26.2152564,20.8011864 C26.1555228,20.7446595 26.125656,20.6707779 26.125656,20.5795416 C26.125656,20.2661647 26.2952224,20.1094762 26.6343553,20.1094762 L26.6343553,20.1094762 L26.9176084,20.1094762 L26.9176084,20.6241681 C26.8829243,20.6916036 26.8255993,20.7520973 26.7456333,20.805649 C26.6656673,20.8592008 26.5649872,20.8859766 26.4435931,20.8859766 Z M29.4287334,21.6 C29.6194956,21.6 29.8025503,21.5712407 29.9778974,21.5137222 L29.9778974,21.5137222 L29.9778974,20.7967237 C29.9123831,20.8086241 29.8314537,20.8145743 29.7351091,20.8145743 C29.6098612,20.8145743 29.5260414,20.7907735 29.4836498,20.743172 C29.4412581,20.6955704 29.4200623,20.611276 29.4200623,20.4902887 L29.4200623,20.4902887 L29.4200623,19.0176155 L29.9345424,19.0176155 L29.9345424,18.3214427 L29.4200623,18.3214427 L29.4200623,17.5211416 L28.4460187,17.5211416 L28.4460187,18.3214427 L28.0471522,18.3214427 L28.0471522,19.0176155 L28.4460187,19.0176155 L28.4460187,20.6152428 C28.4460187,20.9464703 28.5259847,21.1934034 28.6859167,21.356042 C28.8458487,21.5186807 29.0934542,21.6 29.4287334,21.6 Z M31.0872088,21.6 C31.4089997,21.6 31.6594956,21.4839712 31.8386965,21.2519136 C31.865673,21.3788511 31.8965033,21.4750459 31.9311873,21.5404981 L31.9311873,21.5404981 L32.9052309,21.5404981 L32.9052309,21.4899214 C32.8204477,21.3332329 32.7761292,21.1071255 32.7722754,20.8115992 L32.7722754,20.8115992 L32.7722754,19.3865276 C32.7664948,19.0374495 32.6479909,18.7627488 32.416764,18.5624256 C32.185537,18.3621024 31.8704902,18.2619408 31.4716237,18.2619408 C31.0727572,18.2619408 30.7447039,18.3591273 30.4874639,18.5535003 C30.2302239,18.7478734 30.1016039,19.0007566 30.1016039,19.3121502 L30.1016039,19.3121502 L31.0756475,19.3121502 C31.0756475,19.0781092 31.191261,18.9610887 31.422488,18.9610887 C31.671057,18.9610887 31.7953415,19.1088518 31.7953415,19.4043782 L31.7953415,19.4043782 L31.7953415,19.5739587 L31.4947464,19.5739587 C31.0168773,19.5739587 30.6526948,19.6632116 30.4021989,19.8417175 C30.151703,20.0202233 30.0264551,20.2840153 30.0264551,20.6330934 C30.0264551,20.9107691 30.1295438,21.1413392 30.3357212,21.3248035 C30.5418986,21.5082678 30.7923944,21.6 31.0872088,21.6 Z M31.3213262,20.8859766 C31.2288354,20.8859766 31.1527232,20.8577132 31.0929895,20.8011864 C31.0332559,20.7446595 31.0033891,20.6707779 31.0033891,20.5795416 C31.0033891,20.2661647 31.1729555,20.1094762 31.5120884,20.1094762 L31.5120884,20.1094762 L31.7953415,20.1094762 L31.7953415,20.6241681 C31.7606574,20.6916036 31.7033324,20.7520973 31.6233664,20.805649 C31.5434004,20.8592008 31.4427203,20.8859766 31.3213262,20.8859766 Z M34.8527402,21.6 C35.2381184,21.6 35.5367866,21.458187 35.7487447,21.1745611 C35.9607027,20.8909351 36.0666818,20.4853302 36.0666818,19.9577463 L36.0666818,19.9577463 L36.0666818,19.9071696 C36.0666818,19.3855359 35.9607027,18.9809226 35.7487447,18.6933299 C35.5367866,18.4057372 35.2361916,18.2619408 34.8469595,18.2619408 C34.5598526,18.2619408 34.3257353,18.3680526 34.1446075,18.5802762 L34.1446075,18.5802762 L34.1446075,16.9707485 L33.1705639,16.9707485 L33.1705639,21.5404981 L34.0434457,21.5404981 L34.0839105,21.2102622 C34.2785265,21.4700874 34.5348031,21.6 34.8527402,21.6 Z M34.6070615,20.8294498 C34.3816152,20.8294498 34.2274639,20.7441637 34.1446075,20.5735914 L34.1446075,20.5735914 L34.1446075,19.2942996 C34.2293908,19.1217439 34.3816152,19.0354661 34.6012808,19.0354661 C34.7669935,19.0354661 34.8898328,19.1014141 34.9697988,19.2333101 C35.0497648,19.3652061 35.0897478,19.5858591 35.0897478,19.8952692 C35.0897478,20.1749284 35.0743327,20.3712848 35.0435024,20.4843385 C34.9818419,20.7144127 34.8363616,20.8294498 34.6070615,20.8294498 Z M37.2655937,21.6 C37.5873845,21.6 37.8378804,21.4839712 38.0170813,21.2519136 C38.0440578,21.3788511 38.0748881,21.4750459 38.1095721,21.5404981 L38.1095721,21.5404981 L39.0836158,21.5404981 L39.0836158,21.4899214 C38.9988325,21.3332329 38.954514,21.1071255 38.9506602,20.8115992 L38.9506602,20.8115992 L38.9506602,19.3865276 C38.9448796,19.0374495 38.8263757,18.7627488 38.5951488,18.5624256 C38.3639218,18.3621024 38.048875,18.2619408 37.6500085,18.2619408 C37.251142,18.2619408 36.9230887,18.3591273 36.6658487,18.5535003 C36.4086087,18.7478734 36.2799887,19.0007566 36.2799887,19.3121502 L36.2799887,19.3121502 L37.2540323,19.3121502 C37.2540323,19.0781092 37.3696458,18.9610887 37.6008728,18.9610887 C37.8494418,18.9610887 37.9737263,19.1088518 37.9737263,19.4043782 L37.9737263,19.4043782 L37.9737263,19.5739587 L37.6731312,19.5739587 C37.1952621,19.5739587 36.8310796,19.6632116 36.5805837,19.8417175 C36.3300878,20.0202233 36.2048399,20.2840153 36.2048399,20.6330934 C36.2048399,20.9107691 36.3079286,21.1413392 36.514106,21.3248035 C36.7202834,21.5082678 36.9707793,21.6 37.2655937,21.6 Z M37.499711,20.8859766 C37.4072202,20.8859766 37.331108,20.8577132 37.2713743,20.8011864 C37.2116407,20.7446595 37.1817739,20.6707779 37.1817739,20.5795416 C37.1817739,20.2661647 37.3513403,20.1094762 37.6904732,20.1094762 L37.6904732,20.1094762 L37.9737263,20.1094762 L37.9737263,20.6241681 C37.9390422,20.6916036 37.8817172,20.7520973 37.8017512,20.805649 C37.7217852,20.8592008 37.6211051,20.8859766 37.499711,20.8859766 Z M40.2969793,21.5404981 L40.2969793,19.2675237 C40.3894701,19.1128186 40.5310966,19.0354661 40.7218589,19.0354661 C40.8894984,19.0354661 41.0051119,19.0736465 41.0686993,19.1500073 C41.1322868,19.2263682 41.1640805,19.3458679 41.1640805,19.5085066 L41.1640805,19.5085066 L41.1640805,21.5404981 L42.1410145,21.5404981 L42.1410145,19.4668552 C42.1352338,19.0642254 42.0518957,18.7627488 41.8910003,18.5624256 C41.7301048,18.3621024 41.4868348,18.2619408 41.1611901,18.2619408 C40.7815925,18.2619408 40.4838878,18.4077206 40.2680759,18.6992801 L40.2680759,18.6992801 L40.2362822,18.3214427 L39.3229357,18.3214427 L39.3229357,21.5404981 L40.2969793,21.5404981 Z M43.5133466,21.5404981 L43.5133466,20.6241681 L43.7879286,20.3415338 L44.4700482,21.5404981 L45.5857183,21.5404981 L44.4180221,19.6453611 L45.5134599,18.3214427 L44.3457637,18.3214427 L43.611618,19.2615735 L43.5133466,19.3954529 L43.5133466,16.9677735 L42.5393029,16.9677735 L42.5393029,21.5404981 L43.5133466,21.5404981 Z M47.0765543,21.6 C47.3328308,21.6 47.5722471,21.5489275 47.7948031,21.4467825 C48.017359,21.3446375 48.1893341,21.2072872 48.3107283,21.0347315 L48.3107283,21.0347315 L47.8656163,20.4932638 C47.6921961,20.7154044 47.4513347,20.8264747 47.143032,20.8264747 C46.9561235,20.8264747 46.8038991,20.7749063 46.6863587,20.6717696 C46.5688184,20.5686329 46.4927061,20.42682 46.4580221,20.2463307 L46.4580221,20.2463307 L48.394548,20.2463307 L48.394548,19.856593 C48.394548,19.3547932 48.2673732,18.9635679 48.0130235,18.6829171 C47.7586738,18.4022662 47.4118334,18.2619408 46.9725021,18.2619408 C46.6603457,18.2619408 46.3905809,18.3308639 46.1632077,18.4687101 C45.9358345,18.6065562 45.762896,18.8014251 45.6443922,19.0533167 C45.5258884,19.3052083 45.4666364,19.5957761 45.4666364,19.9250202 L45.4666364,19.9250202 L45.4666364,20.0083229 C45.4666364,20.4803717 45.6150071,20.8636634 45.9117484,21.158198 C46.2084897,21.4527327 46.5967583,21.6 47.0765543,21.6 Z M47.4407368,19.6185852 L46.4580221,19.6185852 C46.5119751,19.2298391 46.6815415,19.0354661 46.9667215,19.0354661 C47.1208728,19.0354661 47.2393766,19.0795967 47.3222329,19.1678579 C47.4050893,19.2561192 47.4445905,19.3805774 47.4407368,19.5412326 L47.4407368,19.5412326 L47.4407368,19.6185852 Z M49.5934599,21.5404981 L49.5934599,19.2675237 C49.6859507,19.1128186 49.8275772,19.0354661 50.0183395,19.0354661 C50.185979,19.0354661 50.3015925,19.0736465 50.3651799,19.1500073 C50.4287674,19.2263682 50.4605611,19.3458679 50.4605611,19.5085066 L50.4605611,19.5085066 L50.4605611,21.5404981 L51.437495,21.5404981 L51.437495,19.4668552 C51.4317144,19.0642254 51.3483763,18.7627488 51.1874809,18.5624256 C51.0265854,18.3621024 50.7833154,18.2619408 50.4576707,18.2619408 C50.0780731,18.2619408 49.7803684,18.4077206 49.5645565,18.6992801 L49.5645565,18.6992801 L49.5327628,18.3214427 L48.6194163,18.3214427 L48.6194163,21.5404981 L49.5934599,21.5404981 Z" id="ArtportalenfrånArtDatabanken" fill="#626262" fill-rule="nonzero"></path>
    </g>
</svg>