<?xml version="1.0" encoding="UTF-8"?>
<svg width="30px" height="30px" viewBox="0 0 30 30" version="1.1" xmlns="http://www.w3.org/2000/svg" xmlns:xlink="http://www.w3.org/1999/xlink">
    <title>resize</title>
    <g id="PLATAFORMA" stroke="none" stroke-width="1" fill="none" fill-rule="evenodd">
        <g id="10_OBSERVATION-PAGE-Copy" transform="translate(-1386.000000, -300.000000)" fill="#626262" fill-rule="nonzero">
            <g id="resize" transform="translate(1386.000000, 300.000000)">
                <path d="M28.828125,0 L20.1686719,0 C19.5214453,0 18.9967969,0.524648438 18.9967969,1.171875 C18.9967969,1.81910156 19.5214453,2.34375 20.1686719,2.34375 L25.9989258,2.34375 L16.6051172,11.7376172 C16.1474414,12.195293 16.1474414,12.9372656 16.6051172,13.3948828 C17.0627344,13.8525 17.804707,13.8525586 18.2623828,13.3948828 L27.65625,4.00101562 L27.65625,9.83126953 C27.65625,10.4784961 28.1808984,11.0031445 28.828125,11.0031445 C29.4753516,11.0031445 30,10.4784961 30,9.83126953 L30,1.171875 C30,0.534082031 29.4816797,0 28.828125,0 Z" id="Path"></path>
                <path d="M13.3948828,16.6051172 C12.937207,16.1475 12.1952344,16.1474414 11.7376172,16.6051172 L2.34375,25.9989844 L2.34375,20.1687305 C2.34375,19.5215039 1.81910156,18.9968555 1.171875,18.9968555 C0.524648438,18.9968555 0,19.5215039 0,20.1687305 L0,28.828125 C0,29.4648047 0.518730469,30 1.171875,30 L9.83132813,30 C10.4785547,30 11.0032031,29.4753516 11.0032031,28.828125 C11.0032031,28.1808984 10.4785547,27.65625 9.83132813,27.65625 L4.00101562,27.65625 L13.3948828,18.2623828 C13.8525586,17.804707 13.8525586,17.0627344 13.3948828,16.6051172 Z" id="Path"></path>
            </g>
        </g>
    </g>
</svg>