<?xml version="1.0" encoding="UTF-8"?>
<svg width="37px" height="37px" viewBox="0 0 37 37" version="1.1" xmlns="http://www.w3.org/2000/svg" xmlns:xlink="http://www.w3.org/1999/xlink">
    <title>worldwide</title>
    <g id="Symbols" stroke="none" stroke-width="1" fill="none" fill-rule="evenodd">
        <g id="icons/grid-map" transform="translate(-8.000000, -4.000000)" fill="#AAAEB3" fill-rule="nonzero" stroke="#AAAEB3">
            <g id="worldwide" transform="translate(9.000000, 5.000000)">
                <path d="M17.28972,0.00359981518 C10.37412,0.002592 4.123944,4.124808 1.401984,10.482192 L1.18656,10.553616 L1.27008,10.804176 C-2.313792,19.643328 1.946376,29.714184 10.785528,33.298056 C12.849984,34.135128 15.056856,34.564824 17.284608,34.5636026 C26.828064,34.56504 34.56576,26.829648 34.5672,17.286192 C34.56864,7.742736 26.833248,0.004968 17.28972,0.00359981518 Z M30.843936,25.995888 L29.956608,25.109136 L29.956608,23.0436 C29.957616,22.954464 29.937888,22.866336 29.899008,22.786128 L27.652608,18.299664 L27.652608,16.1316 C27.652608,15.939072 27.556488,15.759216 27.396288,15.652368 L25.668288,14.500368 C25.532856,14.409936 25.365456,14.381064 25.207488,14.42088 L23.091264,14.949648 L19.536768,13.4244 L19.047744,9.998352 L20.403072,8.6436 L23.312448,8.6436 L24.291648,10.11528 C24.380064,10.247616 24.519384,10.337544 24.676416,10.363536 L28.132416,10.939536 C28.225008,10.955088 28.319904,10.947528 28.408896,10.917648 L31.591872,9.856656 C34.26156,14.979816 33.976008,21.141648 30.843936,25.995888 Z M28.468224,5.679504 L27.531648,6.303888 L24.92064,5.781456 L23.226624,5.217552 C23.122944,5.182344 23.011344,5.17788 22.905216,5.20488 L20.763648,5.739984 L19.824768,5.427216 L20.520576,4.0356 L22.468608,4.0356 C22.55796,4.035672 22.646088,4.015008 22.72608,3.97512 L24.71904,2.97864 C26.091504,3.69504 27.354096,4.604544 28.468224,5.679504 Z M10.97568,2.441808 L12.35808,3.363408 C12.426048,3.408624 12.5028,3.438864 12.583296,3.452112 L15.374592,3.91752 L15.102144,4.73256 L13.647744,5.218128 C13.517496,5.261472 13.406976,5.349888 13.336128,5.467536 L11.681856,8.224272 L9.024768,9.81864 L5.107968,10.377936 C4.824072,10.41804 4.612968,10.660896 4.612608,10.9476 L4.612608,12.6756 C4.612608,12.828384 4.673376,12.974832 4.781376,13.082832 L5.764608,14.066064 L5.764608,15.055632 L3.368448,13.457808 L2.499264,10.850256 C4.15296,7.071696 7.183944,4.064976 10.97568,2.441808 Z M9.335808,21.32712 L6.732288,20.80584 L5.764608,18.875664 L5.764608,17.522064 L7.910784,15.375888 L8.705088,16.965072 C8.802648,17.160336 9.002304,17.283672 9.220608,17.2836 L12.926592,17.2836 L14.486976,19.88424 C14.591088,20.057544 14.778432,20.163528 14.980608,20.1636 L16.581888,20.1636 L16.178688,22.183632 L13.997952,24.364368 C13.889736,24.472296 13.828824,24.618744 13.828608,24.7716 L13.828608,26.2116 L11.755008,27.7668 C11.61,27.875592 11.524608,28.046304 11.524608,28.2276 L11.524608,30.308112 L10.808064,30.0708 L9.796608,27.541008 L9.796608,21.8916 C9.79668,21.617856 9.604008,21.38184 9.335808,21.32712 Z M7.604352,30.181752 C2.173464,26.107344 -0.123264,19.067472 1.859904,12.574224 L2.33856,14.009616 C2.37888,14.13108 2.458512,14.235696 2.564928,14.306832 L5.436288,16.22088 L4.781376,16.876368 C4.673376,16.984368 4.612608,17.130816 4.612608,17.2836 L4.612608,19.0116 C4.612536,19.100952 4.6332,19.18908 4.673088,19.269072 L5.825088,21.573072 C5.904864,21.732192 6.053688,21.84552 6.228288,21.88008 L8.647488,22.363344 L8.647488,27.6516 C8.647416,27.724752 8.661312,27.797328 8.688384,27.865296 L9.840384,30.745296 C9.903456,30.902616 10.032624,31.024224 10.193472,31.077648 L11.921472,31.653648 C11.979216,31.673232 12.039696,31.683312 12.100608,31.6836 C12.418704,31.6836 12.676608,31.425696 12.676608,31.1076 L12.676608,28.5156 L14.750208,26.9604 C14.895216,26.851608 14.980608,26.680896 14.980608,26.4996 L14.980608,25.010064 L17.11584,22.874832 C17.19612,22.794408 17.25084,22.691952 17.273088,22.580496 L17.849088,19.700496 C17.91144,19.38852 17.70912,19.085112 17.397144,19.02276 C17.360064,19.015344 17.322408,19.0116 17.284608,19.0116 L15.306624,19.0116 L13.74624,16.41096 C13.642128,16.237656 13.454784,16.131672 13.252608,16.1316 L9.576576,16.1316 L8.587008,14.146128 C8.504136,13.980384 8.3466,13.864608 8.163648,13.835088 C7.980768,13.80348 7.794072,13.863816 7.664256,13.996368 L6.916608,14.741136 L6.916608,13.8276 C6.916608,13.674816 6.85584,13.528368 6.74784,13.420368 L5.764608,12.437136 L5.764608,11.446992 L9.3024,10.94184 C9.37836,10.930824 9.45144,10.90476 9.517248,10.865232 L12.397248,9.137232 C12.478032,9.088704 12.545712,9.021024 12.59424,8.94024 L14.2128,6.242832 L15.738624,5.733648 C15.91092,5.677128 16.046136,5.541984 16.102656,5.369616 L16.678656,3.641616 C16.778448,3.339576 16.614504,3.013776 16.312464,2.913984 C16.2846,2.904768 16.256016,2.897712 16.227072,2.892816 L12.893184,2.336976 L12.307392,1.946448 C15.932088,0.766656 19.85796,0.912672 23.385024,2.358288 L22.332672,2.8836 L20.164608,2.8836 C19.945224,2.882376 19.744272,3.005928 19.646208,3.202128 L18.494208,5.506128 C18.352296,5.790816 18.468,6.136704 18.752688,6.278616 C18.776952,6.290712 18.802008,6.30108 18.827712,6.309648 L20.555712,6.885648 C20.659392,6.920856 20.770992,6.92532 20.87712,6.89832 L23.018688,6.363216 L24.587712,6.885648 C24.610176,6.893712 24.633288,6.899904 24.656832,6.90408 L27.536832,7.48008 C27.686592,7.510608 27.8424,7.479936 27.969408,7.394832 L29.280384,6.520464 C29.925576,7.239096 30.505392,8.013816 31.012992,8.835408 L28.179072,9.780048 L25.11072,9.26856 L24.09696,7.74792 C23.990688,7.588584 23.812128,7.492536 23.620608,7.4916 L20.164608,7.4916 C20.011824,7.4916 19.865376,7.552368 19.757376,7.660368 L18.029376,9.388368 C17.901072,9.5166 17.840664,9.697824 17.866368,9.877392 L18.442368,13.909392 C18.471384,14.10876 18.602424,14.278464 18.787968,14.356944 L22.819968,16.084944 C22.935456,16.134984 23.064336,16.14528 23.186304,16.11432 L25.2432,15.599952 L26.500608,16.43976 L26.500608,18.4356 C26.4996,18.524736 26.519328,18.612864 26.558208,18.693072 L28.804608,23.179536 L28.804608,25.3476 C28.804608,25.500384 28.865376,25.646832 28.973376,25.754832 L30.178368,26.9604 C24.834312,34.083576 14.727528,35.52588 7.604352,30.181752 Z" id="Shape"></path>
            </g>
        </g>
    </g>
</svg>