<?xml version="1.0" encoding="utf-8"?>
<!-- Generator: Adobe Illustrator 24.0.1, SVG Export Plug-In . SVG Version: 6.00 Build 0)  -->
<svg version="1.1" id="Capa_1" xmlns="http://www.w3.org/2000/svg" xmlns:xlink="http://www.w3.org/1999/xlink" x="0px" y="0px"
	 viewBox="0 0 22.9 22.9" style="enable-background:new 0 0 22.9 22.9;" xml:space="preserve">
<style type="text/css">
	.st0{fill-rule:evenodd;clip-rule:evenodd;fill:#FFFFFF;}
</style>
<title>Recurso 5</title>
<path class="st0" d="M20.1,4.9c1-0.6,1.7-1.5,2-2.6c-0.9,0.5-2,0.9-3,1.1c-0.8-1-2.1-1.5-3.3-1.5c-1.3,0-2.5,0.5-3.3,1.4
	c-0.9,0.9-1.4,2.1-1.4,3.4c0,0.4,0,0.7,0.1,1.1c-3.8-0.1-7.4-1.9-9.7-5C1.1,3.5,0.9,4.4,0.9,5.2c0,1.6,0.7,3.1,2.1,4
	C2.3,9.2,1.5,9,0.9,8.6c0,1.1,0.3,2.2,1,3.1s1.6,1.5,2.7,1.7c-0.4,0.1-0.8,0.2-1.2,0.1c-0.3,0-0.6,0-0.8-0.1c0.3,1,0.8,1.8,1.6,2.4
	c0.8,0.6,1.7,1,2.7,1c-1.6,1.3-3.7,2-5.8,2c-0.4,0-0.8,0-1.1,0C2.1,20.2,4.7,21,7.3,21s5.1-0.7,7.2-2.1c2-1.3,3.6-3.1,4.6-5.1
	s1.5-4.1,1.5-6.4V6.8c0.9-0.7,1.7-1.5,2.3-2.5C21.9,4.5,21,4.8,20.1,4.9z"/>
</svg>
