<?xml version="1.0" encoding="UTF-8"?>
<svg width="40px" height="40px" viewBox="0 0 40 40" version="1.1" xmlns="http://www.w3.org/2000/svg" xmlns:xlink="http://www.w3.org/1999/xlink">
    <title>avatar@60 copy</title>
    <g id="Symbols" stroke="none" stroke-width="1" fill="none" fill-rule="evenodd">
        <g id="icons/profile" transform="translate(-63.000000, -6.000000)">
            <g id="Group" transform="translate(17.000000, 6.000000)">
                <g id="avatar@60-copy" transform="translate(46.000000, 0.000000)">
                    <circle id="Oval" fill="#AEAEAE" cx="20" cy="20" r="20"></circle>
                    <path d="M25,15.6666667 C25,18.4333333 22.7666667,20.6666667 20,20.6666667 C17.2333333,20.6666667 15,18.4333333 15,15.6666667 C15,12.9 17.2333333,10.6666667 20,10.6666667 C22.7666667,10.6666667 25,12.9 25,15.6666667 L25,15.6666667 Z M10,27 C10,23.6666667 16.6666667,21.8333333 20,21.8333333 C23.3333333,21.8333333 30,23.6666667 30,27 L30,28.6666667 L10,28.6666667 L10,27 L10,27 Z" id="Shape" fill="#FFFFFF"></path>
                </g>
            </g>
        </g>
    </g>
</svg>